<svg width="32" height="32" viewBox="0 0 32 32" fill="none" xmlns="http://www.w3.org/2000/svg">
<path d="M11.7141 27.2286L2.07129 29.9286L4.77129 20.2857L22.4284 2.71431C22.628 2.51021 22.8663 2.34805 23.1294 2.23733C23.3925 2.12661 23.6751 2.06958 23.9606 2.06958C24.246 2.06958 24.5286 2.12661 24.7917 2.23733C25.0548 2.34805 25.2932 2.51021 25.4927 2.71431L29.2856 6.5286C29.4864 6.72781 29.6458 6.96481 29.7546 7.22593C29.8634 7.48706 29.9194 7.76714 29.9194 8.05003C29.9194 8.33291 29.8634 8.61299 29.7546 8.87412C29.6458 9.13525 29.4864 9.37225 29.2856 9.57146L11.7141 27.2286Z" stroke="white" stroke-width="3" stroke-linecap="round" stroke-linejoin="round"/>
</svg>
