<svg width="18" height="18" viewBox="0 0 18 18" fill="none" xmlns="http://www.w3.org/2000/svg">
<path d="M9 0C7.21997 0 5.47991 0.527841 3.99987 1.51677C2.51983 2.50571 1.36628 3.91131 0.685088 5.55585C0.00389957 7.20038 -0.17433 9.00998 0.172937 10.7558C0.520204 12.5016 1.37737 14.1053 2.63604 15.364C3.89472 16.6226 5.49836 17.4798 7.24419 17.8271C8.99002 18.1743 10.7996 17.9961 12.4442 17.3149C14.0887 16.6337 15.4943 15.4802 16.4832 14.0001C17.4722 12.5201 18 10.78 18 9C18 6.61305 17.0518 4.32387 15.364 2.63604C13.6761 0.948212 11.387 0 9 0ZM14.1975 6.15L9.06 13.1175C9.00022 13.199 8.9246 13.2675 8.83766 13.319C8.75073 13.3705 8.65428 13.404 8.55412 13.4173C8.45395 13.4306 8.35212 13.4235 8.25476 13.3965C8.15739 13.3695 8.06648 13.323 7.9875 13.26L4.32 10.3275C4.24296 10.2656 4.17891 10.1891 4.13153 10.1024C4.08414 10.0156 4.05437 9.92041 4.04392 9.82214C4.03346 9.72387 4.04253 9.6245 4.07061 9.52974C4.09868 9.43499 4.1452 9.34672 4.2075 9.27C4.33213 9.11877 4.51099 9.02232 4.70583 9.0013C4.90066 8.98027 5.09598 9.03634 5.25 9.1575L8.31 11.6025L12.99 5.25C13.1081 5.09186 13.2838 4.98664 13.4789 4.95716C13.6741 4.92767 13.873 4.9763 14.0325 5.0925C14.1135 5.15052 14.1822 5.2241 14.2344 5.30894C14.2867 5.39378 14.3215 5.48818 14.3369 5.58664C14.3522 5.68509 14.3478 5.78561 14.3239 5.88234C14.3 5.97907 14.257 6.07006 14.1975 6.15Z" fill="#212121"/>
</svg>
