<svg width="18" height="18" viewBox="0 0 18 18" fill="none" xmlns="http://www.w3.org/2000/svg">
<path d="M9.0001 4.50021C10.0652 4.50021 10.9287 3.63676 10.9287 2.57164C10.9287 1.50652 10.0652 0.643066 9.0001 0.643066C7.93498 0.643066 7.07153 1.50652 7.07153 2.57164C7.07153 3.63676 7.93498 4.50021 9.0001 4.50021Z" fill="#212121" fill-opacity="0.5"/>
<path d="M9.0001 10.9289C10.0652 10.9289 10.9287 10.0655 10.9287 9.00035C10.9287 7.93523 10.0652 7.07178 9.0001 7.07178C7.93498 7.07178 7.07153 7.93523 7.07153 9.00035C7.07153 10.0655 7.93498 10.9289 9.0001 10.9289Z" fill="#212121" fill-opacity="0.5"/>
<path d="M9.0001 17.3571C10.0652 17.3571 10.9287 16.4937 10.9287 15.4286C10.9287 14.3635 10.0652 13.5 9.0001 13.5C7.93498 13.5 7.07153 14.3635 7.07153 15.4286C7.07153 16.4937 7.93498 17.3571 9.0001 17.3571Z" fill="#212121" fill-opacity="0.5"/>
</svg>
