<svg width="50" height="50" viewBox="0 0 50 50" fill="none" xmlns="http://www.w3.org/2000/svg">
<rect width="50" height="50" rx="25" fill="white" fill-opacity="0.5"/>
<g clip-path="url(#clip0_324_4917)">
<path d="M17.75 13.5H14.75C13.9216 13.5 13.25 14.1716 13.25 15V35C13.25 35.8284 13.9216 36.5 14.75 36.5H17.75C18.5784 36.5 19.25 35.8284 19.25 35V15C19.25 14.1716 18.5784 13.5 17.75 13.5Z" fill="#212121"/>
<path d="M25.25 20.5H22.25C21.4216 20.5 20.75 21.1716 20.75 22V35C20.75 35.8284 21.4216 36.5 22.25 36.5H25.25C26.0784 36.5 26.75 35.8284 26.75 35V22C26.75 21.1716 26.0784 20.5 25.25 20.5Z" fill="#212121"/>
<path d="M36.7299 34.0901L33.6299 15.8601C33.5984 15.6651 33.5285 15.4783 33.4242 15.3106C33.3199 15.1428 33.1833 14.9975 33.0223 14.8831C32.8613 14.7686 32.6792 14.6873 32.4865 14.6439C32.2938 14.6005 32.0944 14.5958 31.8999 14.6301L28.9999 15.1301C28.8055 15.1628 28.6194 15.2335 28.4524 15.3382C28.2853 15.4429 28.1405 15.5795 28.0263 15.7401C27.912 15.9008 27.8306 16.0824 27.7866 16.2746C27.7426 16.4668 27.7369 16.6657 27.7699 16.8601L30.8099 35.1001C30.8784 35.4915 31.0985 35.8401 31.4223 36.0704C31.7461 36.3006 32.1477 36.394 32.5399 36.3301L35.5399 35.8201C35.7402 35.7948 35.9329 35.7273 36.1052 35.6222C36.2776 35.5171 36.4257 35.3766 36.5399 35.2101C36.6438 35.0451 36.714 34.8613 36.7466 34.6691C36.7792 34.4769 36.7735 34.2801 36.7299 34.0901Z" fill="#212121"/>
</g>
<defs>
<clipPath id="clip0_324_4917">
<rect width="24" height="24" fill="white" transform="translate(13 13)"/>
</clipPath>
</defs>
</svg>
