<svg width="22" height="29" viewBox="0 0 22 29" fill="none" xmlns="http://www.w3.org/2000/svg">
<path d="M3.87642 28.2298L11.1515 24.2304C11.2699 24.112 11.4304 24.0455 11.5979 24.0455C11.7653 24.0455 11.9258 24.112 12.0442 24.2304L18.2363 28.2387C18.4746 28.5275 18.7973 28.7344 19.1591 28.8305C19.5209 28.9265 19.9038 28.9069 20.2539 28.7744C20.4438 28.6912 20.6164 28.5731 20.7627 28.4262C20.9434 28.2334 21.0825 28.0055 21.1716 27.7568C21.2606 27.508 21.2977 27.2436 21.2805 26.98L21.3073 3.28374C21.3053 2.61667 21.0394 1.97749 20.5677 1.5058C20.0961 1.03411 19.4569 0.768246 18.7898 0.766261L3.34078 0.757335C2.674 0.760068 2.03538 1.02643 1.56427 1.49829C1.32793 1.73191 1.14004 2.00988 1.01135 2.31627C0.882672 2.62265 0.815734 2.95143 0.81438 3.28374L0.832234 26.971C0.79529 27.3398 0.874347 27.7109 1.05838 28.0325C1.24242 28.3542 1.52226 28.6104 1.85887 28.7654C2.20898 28.898 2.59181 28.9176 2.95364 28.8215C3.31547 28.7255 3.63816 28.5185 3.87642 28.2298Z" fill="white"/>
</svg>
