<svg width="51" height="51" viewBox="0 0 51 51" fill="none" xmlns="http://www.w3.org/2000/svg">
<circle cx="25.5" cy="25.5" r="25.5" fill="white" fill-opacity="0.5"/>
<g clip-path="url(#clip0_1013_5154)">
<path d="M37.2032 34.4141L29.7501 21.9922V15.6875H30.6876C30.9362 15.6875 31.1747 15.5887 31.3505 15.4129C31.5263 15.2371 31.6251 14.9986 31.6251 14.75C31.6251 14.5014 31.5263 14.2629 31.3505 14.0871C31.1747 13.9113 30.9362 13.8125 30.6876 13.8125H21.3126C21.0639 13.8125 20.8255 13.9113 20.6497 14.0871C20.4738 14.2629 20.3751 14.5014 20.3751 14.75C20.3751 14.9986 20.4738 15.2371 20.6497 15.4129C20.8255 15.5887 21.0639 15.6875 21.3126 15.6875H22.2501V21.9922L17.5391 29.832C17.5391 29.8438 17.5274 29.8555 17.5274 29.8672L14.7969 34.4141C14.6273 34.6983 14.5359 35.0224 14.5321 35.3535C14.5283 35.6845 14.6122 36.0106 14.7753 36.2987C14.9384 36.5868 15.1749 36.8266 15.4606 36.9937C15.7464 37.1608 16.0714 37.2492 16.4024 37.25H35.5977C35.9288 37.2492 36.2537 37.1608 36.5395 36.9937C36.8253 36.8266 37.0617 36.5868 37.2248 36.2987C37.3879 36.0106 37.4718 35.6845 37.468 35.3535C37.4642 35.0224 37.3729 34.6983 37.2032 34.4141ZM23.8555 22.9531C24.0311 22.6633 24.1243 22.331 24.1251 21.9922V15.6875H27.8751V21.9922C27.8759 22.331 27.969 22.6633 28.1446 22.9531L32.6915 30.5469C31.1563 31.3789 29.0118 31.1445 26.4219 29.8438C24.7462 29.0117 22.5899 28.2617 20.5274 28.5078L23.8555 22.9531Z" fill="#212121"/>
</g>
<defs>
<clipPath id="clip0_1013_5154">
<rect width="30" height="30" fill="white" transform="translate(11 11)"/>
</clipPath>
</defs>
</svg>
