<svg width="28" height="28" viewBox="0 0 28 28" fill="none" xmlns="http://www.w3.org/2000/svg">
<path d="M10.5715 11.2856C12.7017 11.2856 14.4286 9.55867 14.4286 7.42843C14.4286 5.29819 12.7017 3.57129 10.5715 3.57129C8.44126 3.57129 6.71436 5.29819 6.71436 7.42843C6.71436 9.55867 8.44126 11.2856 10.5715 11.2856Z" fill="white" fill-opacity="0.6" stroke="white" stroke-width="2" stroke-linecap="round" stroke-linejoin="round"/>
<path d="M18.2857 24.1429H2.85718V22.4286C2.85718 20.3827 3.66993 18.4205 5.11664 16.9738C6.56335 15.5271 8.52551 14.7144 10.5715 14.7144C12.6174 14.7144 14.5796 15.5271 16.0263 16.9738C17.473 18.4205 18.2857 20.3827 18.2857 22.4286V24.1429Z" fill="white" fill-opacity="0.6" stroke="white" stroke-width="2" stroke-linecap="round" stroke-linejoin="round"/>
<path d="M17.4287 3.57129C18.4517 3.57129 19.4328 3.97767 20.1561 4.70102C20.8795 5.42437 21.2859 6.40545 21.2859 7.42843C21.2859 8.45141 20.8795 9.43249 20.1561 10.1558C19.4328 10.8792 18.4517 11.2856 17.4287 11.2856" stroke="white" stroke-width="2" stroke-linecap="round" stroke-linejoin="round"/>
<path d="M20.1714 15.04C21.6317 15.5956 22.8889 16.5814 23.7766 17.8671C24.6643 19.1527 25.1407 20.6777 25.1428 22.24V24.1429H22.5714" stroke="white" stroke-width="2" stroke-linecap="round" stroke-linejoin="round"/>
</svg>
