<svg width="84" height="84" viewBox="0 0 84 84" fill="none" xmlns="http://www.w3.org/2000/svg">
<path d="M33.25 1.75H5.25C3.317 1.75 1.75 3.317 1.75 5.25V33.25C1.75 35.183 3.317 36.75 5.25 36.75H33.25C35.183 36.75 36.75 35.183 36.75 33.25V5.25C36.75 3.317 35.183 1.75 33.25 1.75Z" fill="#D2F3FC"/>
<path d="M22.505 45.5C22.1271 44.9931 21.636 44.5815 21.0709 44.2979C20.5058 44.0143 19.8823 43.8666 19.25 43.8666C18.6177 43.8666 17.9942 44.0143 17.4291 44.2979C16.864 44.5815 16.3729 44.9931 15.995 45.5L4.93501 60.655C4.424 61.33 4.14746 62.1534 4.14746 63C4.14746 63.8466 4.424 64.67 4.93501 65.345L15.995 80.5C16.3729 81.0069 16.864 81.4185 17.4291 81.7021C17.9942 81.9857 18.6177 82.1334 19.25 82.1334C19.8823 82.1334 20.5058 81.9857 21.0709 81.7021C21.636 81.4185 22.1271 81.0069 22.505 80.5L33.565 65.24C34.076 64.565 34.3526 63.7416 34.3526 62.895C34.3526 62.0484 34.076 61.225 33.565 60.55L22.505 45.5Z" fill="#C9FDC7"/>
<path d="M64.75 36.75C74.415 36.75 82.25 28.915 82.25 19.25C82.25 9.58502 74.415 1.75 64.75 1.75C55.085 1.75 47.25 9.58502 47.25 19.25C47.25 28.915 55.085 36.75 64.75 36.75Z" fill="#FBF398"/>
<path d="M62.5099 49C62.2 48.4777 61.7595 48.045 61.2318 47.7445C60.7041 47.444 60.1072 47.286 59.4999 47.286C58.8926 47.286 58.2958 47.444 57.768 47.7445C57.2403 48.045 56.7998 48.4777 56.4899 49L39.8649 77C39.5577 77.532 39.396 78.1356 39.396 78.75C39.396 79.3644 39.5577 79.9679 39.8649 80.5C40.1733 81.0341 40.6173 81.4772 41.152 81.7846C41.6867 82.0919 42.2932 82.2524 42.9099 82.25H76.1599C76.7766 82.2524 77.3831 82.0919 77.9178 81.7846C78.4525 81.4772 78.8965 81.0341 79.2049 80.5C79.5121 79.9679 79.6738 79.3644 79.6738 78.75C79.6738 78.1356 79.5121 77.532 79.2049 77L62.5099 49Z" fill="#DDDFFE"/>
</svg>
