<svg width="193" height="225" viewBox="0 0 193 225" fill="none" xmlns="http://www.w3.org/2000/svg">
<path d="M171.186 187.134C174.115 184.859 171.376 186.945 170.628 187.469C169.668 188.138 168.692 188.784 167.699 189.405C165.839 190.576 163.917 191.66 161.93 192.657C161.004 193.125 160.074 193.573 159.141 194.001C158.84 194.14 156.519 195.289 158.522 194.285C160.279 193.41 158.734 194.185 158.243 194.374C156.19 195.174 154.101 195.884 151.977 196.505C149.854 197.126 147.702 197.66 145.522 198.106C144.5 198.318 143.475 198.504 142.448 198.664C141.935 198.748 141.416 198.82 140.903 198.909C139.609 199.127 144.167 198.524 141.193 198.859C136.774 199.354 132.324 199.513 127.882 199.333C125.789 199.244 123.697 199.088 121.622 198.859C121.097 198.798 119.312 198.552 121.371 198.859C123.697 199.188 121.086 198.803 120.74 198.748C119.58 198.563 118.419 198.352 117.27 198.117C112.929 197.245 108.661 196.038 104.505 194.508C104.065 194.347 100.806 192.891 102.776 193.872C104.745 194.854 102.469 193.727 102.162 193.594C101.694 193.382 101.219 193.164 100.756 192.941C98.7775 192.004 96.8379 190.985 94.9373 189.884C93.0367 188.784 91.1491 187.592 89.2746 186.309C88.4042 185.706 87.5562 185.082 86.7082 184.457C85.4753 183.559 86.8644 183.899 87.4112 185.015C87.188 184.557 86.2675 184.094 85.8825 183.777C82.3543 180.849 79.0532 177.659 76.0076 174.233C75.3121 173.445 74.6296 172.651 73.9601 171.851C73.6254 171.449 73.2962 171.042 72.967 170.635C72.292 169.821 72.4091 169.163 73.525 171.366C72.5319 169.352 70.6852 167.495 69.4411 165.598C66.9886 161.868 64.7856 157.979 62.8467 153.957C62.3948 153.009 61.9485 152.055 61.5244 151.096C61.3124 150.616 61.1172 150.12 60.894 149.646C60.9944 149.869 62.0544 152.524 61.2734 150.51C60.4142 148.279 59.5997 146.081 58.8521 143.817C57.4667 139.555 56.3487 135.21 55.5047 130.809C55.3038 129.775 55.1179 128.738 54.9468 127.697C54.8631 127.178 54.7906 126.654 54.7069 126.135C54.3665 123.948 54.8352 126.961 54.8463 127.178C54.7292 124.819 54.3442 122.465 54.2103 120.105C53.9128 114.787 53.9836 109.455 54.4223 104.147C54.5284 102.892 54.6678 101.648 54.7906 100.399C55.0249 98.0505 54.7906 100.622 54.6901 100.984C54.8408 100.427 54.8687 99.7238 54.9635 99.1214C55.3987 96.3214 55.9324 93.5324 56.5647 90.7547C57.7589 85.5232 59.304 80.3781 61.1897 75.3542C61.5824 74.15 62.0482 72.9709 62.5845 71.8234C61.0893 74.6625 62.83 71.3047 63.1926 70.5126C64.3084 68.1086 65.48 65.738 66.7632 63.4232C67.9515 61.2757 69.2235 59.1784 70.6015 57.1481C70.9251 56.674 71.2543 56.1998 71.589 55.7313C71.8624 55.3464 72.8666 53.74 71.8791 55.2851C70.8916 56.8301 71.907 55.2851 72.2195 54.8835C72.6769 54.3257 73.14 53.7679 73.6142 53.2101C75.2335 51.3717 76.9783 49.6477 78.8362 48.0506C79.1932 47.7438 80.5545 46.4274 79.2267 47.6769C77.8989 48.9263 79.2267 47.6769 79.6507 47.3924C80.694 46.6561 81.7763 45.9645 82.8866 45.323C83.9968 44.6816 85.1628 44.1461 86.3065 43.5548C87.8408 42.7739 83.9968 44.3915 85.6259 43.8449C86.1838 43.6664 86.6971 43.4488 87.2327 43.2871C88.3113 42.9152 89.4029 42.601 90.5075 42.3444C91.0617 42.218 91.6196 42.1009 92.1812 41.993C92.5997 41.9094 93.0125 41.8368 93.4309 41.7755C91.5713 42.0098 91.138 42.0786 92.131 41.9819C93.2468 41.9484 94.3626 41.8424 95.4785 41.8592C96.0363 41.8592 96.5943 41.8926 97.1522 41.9317L97.565 41.9651C98.6808 42.0804 98.6696 42.0804 97.5315 41.9651L96.6612 41.8536C97.0741 41.9261 97.4869 42.0098 97.8942 42.1046C98.5469 42.2496 99.1941 42.417 99.8412 42.6066C100.315 42.7516 100.784 42.9245 101.258 43.0807C103.378 43.7835 99.2332 42.06 100.589 42.7962C101.454 43.2648 102.324 43.6775 103.161 44.1963C103.529 44.4194 106.452 46.3661 104.556 45.0776C102.659 43.7891 105.532 46.0258 105.995 46.4888C106.782 47.2697 107.479 48.1064 108.227 48.9375C109.292 50.1423 106.687 46.7565 107.579 48.1064C107.847 48.5191 108.137 48.9096 108.416 49.3223C109.03 50.252 109.601 51.2077 110.129 52.1894C110.598 53.0539 110.938 54.0356 111.446 54.8667C111.323 54.6715 110.33 51.9105 111.016 53.8962C111.217 54.4874 111.44 55.0675 111.635 55.6588C112.281 57.6674 112.79 59.7172 113.158 61.7944C113.566 64.0256 112.829 58.7043 113.158 61.906C113.253 62.8821 113.331 63.8638 113.398 64.8399C113.648 68.6409 113.684 72.4529 113.504 76.2578C113.426 77.9981 113.303 79.7347 113.136 81.4675C113.047 82.3321 112.946 83.1967 112.852 84.0668C112.757 84.937 112.394 86.4207 113.052 82.6166C112.941 83.2636 112.863 83.9162 112.762 84.5577C112.177 88.2335 111.407 91.8814 110.458 95.4791C109.51 99.0768 108.372 102.68 107.077 106.2C106.464 107.873 105.772 109.496 105.125 111.147C106.625 107.315 105.504 110.233 105.086 111.147C104.628 112.166 104.156 113.178 103.668 114.182C100.323 121.08 96.3763 127.671 91.8744 133.877C91.3165 134.613 90.7976 135.338 90.2565 136.069C89.057 137.703 90.9315 135.205 91.0096 135.11C90.7195 135.456 90.4518 135.829 90.1672 136.181C88.8952 137.787 87.5934 139.364 86.2619 140.911C83.7067 143.848 81.0306 146.673 78.2337 149.383C75.4442 152.1 72.4929 154.705 69.4634 157.192C68.7493 157.778 67.9962 158.308 67.2988 158.922C70.384 156.272 67.6447 158.637 66.8413 159.228C65.2568 160.392 63.6482 161.525 62.0154 162.625C55.3242 167.082 48.2523 170.938 40.882 174.149C39.4147 174.802 43.4818 173.084 41.9978 173.681C41.5627 173.859 41.1331 174.038 40.6923 174.211C39.822 174.556 38.9461 174.895 38.0646 175.226C36.0785 175.969 34.0737 176.659 32.0504 177.295C28.2009 178.511 24.2955 179.536 20.3344 180.368C18.4747 180.763 16.5909 181.114 14.6829 181.423C13.634 181.59 9.90163 181.863 14.125 181.534C13.0426 181.618 11.9603 181.796 10.878 181.908C6.73679 182.327 2.57672 182.532 -1.5856 182.522C-5.84613 182.508 -10.1031 182.273 -14.3393 181.819C-15.4551 181.696 -18.9922 180.804 -15.1204 181.752C-16.1078 181.512 -17.1679 181.445 -18.1721 181.278C-20.4855 180.906 -22.7878 180.454 -25.0789 179.922C-29.5286 178.917 -33.9233 177.683 -38.2455 176.224C-40.3488 175.516 -42.4242 174.757 -44.4884 173.948L-46.0505 173.324C-48.1148 172.509 -45.621 173.502 -45.3476 173.636C-46.6308 173.011 -47.9753 172.52 -49.2529 171.896C-53.109 170.1 -56.7965 167.962 -60.2715 165.509C-61.2813 164.795 -63.061 162.765 -60.6788 165.269C-61.4142 164.6 -62.1832 163.969 -62.9829 163.378C-64.6864 161.921 -66.3248 160.392 -67.8981 158.793C-69.304 157.369 -70.6522 155.897 -71.9429 154.376C-72.5621 153.651 -73.1312 152.658 -73.8509 152.05C-71.9931 153.628 -72.5844 153.723 -73.2372 152.842C-73.6835 152.234 -74.1354 151.631 -74.5706 151.018C-77.0681 147.508 -79.3217 143.831 -81.3156 140.013C-82.2566 138.213 -83.1437 136.385 -83.9768 134.53C-84.1548 134.052 -84.3597 133.584 -84.5905 133.13C-83.1009 135.612 -83.8429 134.954 -84.1888 134.061C-84.6519 132.879 -85.1261 131.696 -85.5613 130.497C-87.0364 126.428 -88.266 122.274 -89.2435 118.058C-89.6954 116.089 -90.1026 114.098 -90.4429 112.107C-90.5266 111.616 -91.0734 107.7 -90.7888 110.065C-90.5378 112.162 -90.7386 110.417 -90.7888 109.892C-90.8595 109.268 -90.9265 108.643 -90.9897 108.018C-91.473 103.101 -91.6277 98.1576 -91.4528 93.2201C-91.3635 90.5539 -91.1775 87.8951 -90.8948 85.2437C-90.8279 84.619 -90.7442 83.9943 -90.6884 83.3696C-90.5155 81.54 -91.0566 85.7792 -90.7777 83.9608C-90.5601 82.5608 -90.3537 81.1719 -90.1026 79.7719C-89.1311 74.3395 -87.7833 68.9811 -86.069 63.7355C-85.2842 61.3296 -84.4232 58.9516 -83.4859 56.6014C-83.3241 56.1943 -82.543 54.2866 -83.2292 55.9321C-84.0271 57.8453 -82.7941 54.9671 -82.7383 54.8165C-82.1804 53.5559 -81.5834 52.3065 -80.9697 51.0682C-78.7663 46.7079 -76.2608 42.5068 -73.4715 38.4957C-72.5008 37.0734 -74.9946 40.342 -73.8899 39.02C-73.5217 38.5794 -73.1702 38.122 -72.7741 37.6869C-71.9373 36.6941 -71.0707 35.7328 -70.1743 34.8032C-69.3709 33.9777 -68.5415 33.1763 -67.6861 32.3991C-67.262 32.0142 -66.8157 31.6461 -66.3806 31.2835C-64.6287 29.7385 -67.8478 32.2708 -66.587 31.4063C-64.6152 30.0032 -62.5478 28.7395 -60.3998 27.6245C-59.8618 27.4282 -59.3427 27.1837 -58.8488 26.8938C-59.1111 27.1113 -61.6384 27.9089 -59.5183 27.2117C-58.3021 26.8045 -57.1082 26.3806 -55.8641 26.0515C-55.5126 25.9623 -52.1707 25.4101 -52.1317 25.2762C-52.1986 25.4993 -55.4233 25.4993 -53.0132 25.4435C-52.4553 25.4435 -51.8974 25.3766 -51.3395 25.3599C-50.2236 25.3599 -49.1078 25.3989 -47.992 25.4658C-46.0059 25.583 -48.8177 25.7057 -48.8959 25.332C-48.8959 25.4603 -46.5917 25.8396 -46.4411 25.8898C-45.4926 26.1463 -44.5553 26.626 -43.6013 26.8324C-43.8636 26.7766 -46.3909 25.438 -44.6223 26.442C-44.1983 26.6818 -43.752 26.8882 -43.3224 27.1225C-42.4688 27.6022 -41.6487 28.1432 -40.8453 28.6843C-40.0419 29.2253 -39.7295 30.0508 -41.6821 28.0149C-41.1856 28.5281 -40.5663 28.9743 -40.0084 29.4652C-39.2999 30.1345 -38.6193 30.8429 -37.9665 31.5736C-37.6711 31.9626 -37.3544 32.335 -37.0181 32.6892C-37.1966 32.5274 -38.8034 30.1457 -37.6708 31.8748C-36.4394 33.7317 -35.3215 35.6614 -34.3234 37.6535C-33.7655 38.8025 -34.4964 38.6909 -34.7195 36.6662C-34.5866 37.1483 -34.4092 37.617 -34.1895 38.0662C-33.8548 39.0033 -33.5591 39.9571 -33.2969 40.9165C-33.0346 41.8759 -32.8115 42.8464 -32.6218 43.8226C-32.5707 44.3166 -32.4868 44.8067 -32.3707 45.2895C-32.6274 43.2425 -32.6999 42.7293 -32.5883 43.7389C-32.5437 44.174 -32.5046 44.609 -32.4767 45.0497C-32.2945 47.5569 -32.3075 50.0746 -32.5158 52.5798C-32.5023 53.2093 -32.5622 53.8383 -32.6943 54.454C-31.8407 52.485 -32.4265 52.7416 -32.6329 53.8962C-32.9119 55.4524 -33.1909 57.0086 -33.5758 58.5481C-34.1672 61.0303 -34.9036 63.4789 -35.7405 65.8941C-36.157 67.1101 -36.6034 68.3168 -37.0794 69.5142C-37.3082 70.072 -37.5202 70.7413 -37.7991 71.3047C-36.3598 68.3707 -37.8382 71.3047 -38.0502 71.8067C-42.0233 80.5137 -46.754 88.8549 -52.1875 96.7341C-53.426 98.5413 -54.698 100.323 -56.0035 102.078L-56.991 103.394C-58.6647 105.625 -55.6019 101.659 -56.7567 103.087C-57.5322 104.041 -58.291 105.012 -59.0776 105.965C-62.0531 109.558 -65.1699 113.02 -68.4281 116.351C-71.6918 119.698 -75.1229 122.861 -78.66 125.873C-79.4969 126.587 -80.3337 127.284 -81.1873 127.976C-81.7452 128.411 -82.2641 128.829 -82.7941 129.264C-84.1052 130.33 -80.808 127.764 -82.1581 128.779C-84.0271 130.185 -85.9016 131.568 -87.8208 132.89C-91.7809 135.621 -95.8775 138.149 -100.095 140.465C-102.014 141.513 -103.961 142.523 -105.93 143.477C-106.823 143.912 -107.727 144.336 -108.631 144.743C-109.226 144.959 -109.806 145.217 -110.366 145.512C-109.495 144.955 -107.916 144.503 -109.808 145.267C-118.362 148.725 -127.283 151.197 -136.397 152.635C-139.639 153.143 -133.865 152.362 -137.123 152.747C-138.361 152.898 -139.6 153.02 -140.838 153.126C-143.17 153.32 -145.506 153.431 -147.846 153.461C-150.155 153.489 -152.471 153.427 -154.775 153.271C-155.846 153.199 -156.917 153.093 -157.988 152.992C-159.06 152.892 -159.696 152.323 -156.979 153.149C-157.626 153.004 -158.282 152.901 -158.942 152.842C-161.14 152.47 -163.317 151.986 -165.464 151.392C-166.463 151.118 -167.45 150.834 -168.432 150.482C-168.923 150.321 -169.409 150.153 -169.888 149.975C-170.954 149.584 -172.432 148.301 -169.699 150.125C-171.372 149.01 -173.504 148.335 -175.278 147.286C-176.193 146.74 -177.089 146.165 -177.967 145.563C-178.391 145.273 -178.826 144.877 -179.267 144.637C-176.561 146.137 -178.346 145.351 -179.178 144.637C-180.794 143.264 -182.32 141.788 -183.747 140.219C-184.26 139.661 -185.119 138.021 -185.8 137.804C-184.885 138.1 -184.299 139.851 -185.242 138.49C-185.543 138.055 -185.85 137.631 -186.146 137.19C-187.317 135.438 -188.372 133.61 -189.303 131.718C-189.482 131.345 -190.246 129.035 -189.638 131.088C-189.08 132.951 -189.555 131.272 -189.739 130.787C-190.157 129.671 -190.525 128.556 -190.854 127.44C-192.774 121.054 -199.892 116.368 -206.554 118.516C-213.042 120.557 -217.556 127.317 -215.497 134.162C-208.78 156.529 -189.778 172.922 -166.904 177.184C-145.631 181.183 -122.997 177.886 -103.029 169.821C-62.1405 153.299 -29.849 118.549 -13.2068 78.0316C-8.13541 65.6989 -5.70853 52.485 -7.67235 39.2153C-9.2289 28.6898 -14.5792 18.0194 -22.5293 10.8853C-32.6385 1.79342 -45.2081 -1.425 -58.5197 0.566294C-70.4979 2.36794 -81.7062 9.38488 -89.7121 18.315C-98.0918 27.6747 -103.743 38.663 -108.324 50.2594C-112.904 61.8558 -115.465 74.194 -116.592 86.6494C-118.539 108.236 -114.36 129.961 -105.054 149.484C-96.5241 167.411 -82.3645 183.665 -64.5283 192.762C-45.5697 202.37 -24.6886 207.581 -3.43785 208.007C34.2318 208.682 70.9028 192.623 97.4869 166.229C122.559 141.34 139.279 106.752 139.118 71.0537C139.067 60.4557 137.544 50.2092 132.841 40.632C130.277 35.4016 126.705 30.7292 122.33 26.8831C117.954 23.037 112.862 20.093 107.345 18.2202C95.1772 14.1763 81.33 16.954 70.3895 23.112C59.8452 29.0413 51.5938 38.6798 45.5907 49.0434C22.6665 88.596 22.3094 141.519 48.2575 179.761C60.5983 197.944 77.7036 211.956 98.4688 219.391C117.951 226.369 140.501 226.888 160.251 220.657C170.98 217.272 180.414 212.045 189.262 205.179C191.655 203.321 193 199.043 193 196.159C193 193.025 191.611 189.287 189.262 187.134C186.913 184.981 183.638 183.23 180.235 183.397C176.626 183.559 174.042 184.937 171.214 187.134H171.186Z" fill="#242424"/>
</svg>
