<svg width="18" height="16" viewBox="0 0 18 16" fill="none" xmlns="http://www.w3.org/2000/svg">
<path d="M16.4992 7.59247C16.4992 7.372 16.4541 7.15369 16.3666 6.95C16.279 6.74631 16.1507 6.56123 15.989 6.40533C15.8272 6.24944 15.6352 6.12577 15.4238 6.0414C15.2125 5.95703 14.9859 5.91361 14.7572 5.91361H10.3603C10.3329 5.91544 10.3056 5.91017 10.2811 5.89836C10.2566 5.88655 10.2358 5.86863 10.2209 5.84645C10.2092 5.82346 10.2031 5.79819 10.2031 5.77258C10.2031 5.74697 10.2092 5.72171 10.2209 5.69871C10.6073 4.75882 10.7322 3.73793 10.5832 2.73719C10.1721 1.32695 9.30807 0.924018 8.62519 1.01132C8.28306 1.0609 7.97229 1.23135 7.75334 1.48953C7.5344 1.7477 7.42292 2.07514 7.44061 2.40813C7.44061 4.23474 5.95639 6.24938 4.65335 7.14925C4.60601 7.18079 4.56732 7.22293 4.54062 7.27206C4.51392 7.32119 4.5 7.37584 4.50005 7.4313V14.2206C4.49868 14.2984 4.52592 14.3741 4.57694 14.4343C4.62796 14.4945 4.69946 14.5354 4.77877 14.5497L5.47559 14.684C6.41334 14.9012 7.37509 15.0072 8.3395 14.9996H12.8688C14.2624 14.9996 14.4366 14.2676 14.4366 13.8244C14.4384 13.5916 14.3835 13.3616 14.2764 13.1529C14.5337 13.0267 14.7499 12.8346 14.9011 12.5976C15.0523 12.3606 15.1327 12.088 15.1334 11.8098C15.1352 11.5769 15.0803 11.3469 14.9732 11.1382C15.1618 11.0486 15.3299 10.9234 15.4675 10.7701C15.6051 10.6168 15.7095 10.4385 15.7744 10.2458C15.8394 10.053 15.8636 9.84959 15.8457 9.64763C15.8277 9.44567 15.768 9.24922 15.67 9.06987C15.9311 8.91599 16.1454 8.69827 16.291 8.43879C16.4367 8.17932 16.5085 7.88733 16.4992 7.59247Z" stroke="#212121" stroke-width="1.2" stroke-linecap="round" stroke-linejoin="round"/>
<path d="M4.5 7.61538C4.5 7.45217 4.4398 7.29565 4.33263 7.18024C4.22547 7.06484 4.08012 7 3.92857 7H2.07143C1.91988 7 1.77453 7.06484 1.66737 7.18024C1.5602 7.29565 1.5 7.45217 1.5 7.61538L1.5 14.3846C1.5 14.5478 1.5602 14.7044 1.66737 14.8198C1.77453 14.9352 1.91988 15 2.07143 15H3.92857C4.08012 15 4.22547 14.9352 4.33263 14.8198C4.4398 14.7044 4.5 14.5478 4.5 14.3846V7.61538Z" stroke="#212121" stroke-width="1.2" stroke-linecap="round" stroke-linejoin="round"/>
</svg>
