<svg width="20" height="25" viewBox="0 0 20 25" fill="none" xmlns="http://www.w3.org/2000/svg">
<path d="M2.38789 11.1775C2.38789 9.21434 3.16776 7.33158 4.55592 5.94342C5.94409 4.55525 7.82684 3.77539 9.79 3.77539C11.7532 3.77539 13.6359 4.55525 15.0241 5.94342C16.4122 7.33158 17.1921 9.21434 17.1921 11.1775V17.1917C17.1921 17.5598 17.3383 17.9128 17.5986 18.1731C17.8589 18.4334 18.2119 18.5796 18.58 18.5796H1C1.36809 18.5796 1.72111 18.4334 1.98139 18.1731C2.24167 17.9128 2.38789 17.5598 2.38789 17.1917V11.1775Z" stroke="white" stroke-width="2" stroke-linecap="round" stroke-linejoin="round"/>
<circle cx="3.5" cy="6.5" r="3.5" fill="#EE4A4A"/>
<path d="M9.79004 1V3.77597" stroke="white" stroke-width="2" stroke-linecap="round" stroke-linejoin="round"/>
<path d="M12.0575 21.3545C11.9513 21.8774 11.6676 22.3476 11.2545 22.6853C10.8413 23.023 10.3241 23.2075 9.79048 23.2075C9.25686 23.2075 8.73966 23.023 8.3265 22.6853C7.91334 22.3476 7.62963 21.8774 7.52344 21.3545" stroke="white" stroke-width="2" stroke-linecap="round" stroke-linejoin="round"/>
<path d="M12.1025 6.98438C12.7972 7.32903 13.3818 7.86081 13.7905 8.51982C14.1993 9.17883 14.4158 9.93889 14.4158 10.7143" stroke="white" stroke-width="2" stroke-linecap="round" stroke-linejoin="round"/>
</svg>
