<svg width="28" height="28" viewBox="0 0 28 28" fill="none" xmlns="http://www.w3.org/2000/svg">
<g clip-path="url(#clip0_1212_4114)">
<path d="M23.3406 11.9876L14.5906 4.03605C14.4293 3.88848 14.2186 3.80664 14 3.80664C13.7814 3.80664 13.5707 3.88848 13.4094 4.03605L4.65937 11.9876C4.57133 12.0708 4.50081 12.1707 4.45197 12.2815C4.40313 12.3924 4.37696 12.5118 4.375 12.6329V22.7501C4.375 22.9822 4.46719 23.2047 4.63128 23.3688C4.79538 23.5329 5.01794 23.6251 5.25 23.6251H22.75C22.9821 23.6251 23.2046 23.5329 23.3687 23.3688C23.5328 23.2047 23.625 22.9822 23.625 22.7501V12.6329C23.623 12.5118 23.5969 12.3924 23.548 12.2815C23.4992 12.1707 23.4287 12.0708 23.3406 11.9876V11.9876Z" stroke="white" stroke-width="2" stroke-linecap="round" stroke-linejoin="round"/>
</g>
<defs>
<clipPath id="clip0_1212_4114">
<rect width="28" height="28" fill="white"/>
</clipPath>
</defs>
</svg>
