<svg width="251" height="213" viewBox="0 0 251 213" fill="none" xmlns="http://www.w3.org/2000/svg">
<path d="M333.313 185.987C336.913 185.093 333.563 185.89 332.667 186.066C331.518 186.289 330.364 186.484 329.205 186.649C327.03 186.966 324.833 187.178 322.613 187.284C321.577 187.337 320.545 187.37 319.518 187.383C319.186 187.388 316.599 187.498 318.837 187.392C320.798 187.303 319.071 187.386 318.546 187.36C316.345 187.259 314.148 187.062 311.954 186.769C309.761 186.476 307.578 186.092 305.405 185.617C304.384 185.396 303.371 185.151 302.368 184.881C301.865 184.749 301.361 184.605 300.856 184.479C299.584 184.153 303.996 185.45 301.141 184.551C296.901 183.213 292.769 181.554 288.78 179.59C286.903 178.66 285.054 177.67 283.249 176.619C282.795 176.351 281.262 175.403 283.02 176.518C285.013 177.761 282.782 176.351 282.489 176.16C281.502 175.522 280.527 174.858 279.572 174.178C275.956 171.621 272.543 168.788 269.364 165.706C269.027 165.379 266.638 162.728 268.041 164.423C269.444 166.119 267.819 164.166 267.593 163.92C267.25 163.536 266.905 163.145 266.572 162.753C265.143 161.095 263.783 159.377 262.491 157.601C261.2 155.824 259.957 153.97 258.763 152.037C258.212 151.134 257.69 150.219 257.167 149.304C256.404 147.984 257.536 148.858 257.584 150.099C257.565 149.591 256.911 148.794 256.688 148.348C254.649 144.242 252.924 139.987 251.528 135.621C251.212 134.618 250.91 133.616 250.622 132.614C250.478 132.111 250.342 131.605 250.207 131.1C249.919 130.082 250.293 129.527 250.421 131.994C250.329 129.75 249.393 127.304 249.024 125.066C248.294 120.662 247.856 116.214 247.713 111.751C247.684 110.701 247.663 109.649 247.664 108.6C247.665 108.075 247.687 107.542 247.675 107.018C247.677 107.263 247.57 110.12 247.672 107.962C247.79 105.575 247.936 103.235 248.171 100.862C248.631 96.4043 249.37 91.9796 250.382 87.6139C250.617 86.5874 250.868 85.5636 251.133 84.5424C251.267 84.0342 251.413 83.5255 251.547 83.0174C252.122 80.8805 251.329 83.8241 251.252 84.0275C252.101 81.823 252.703 79.5151 253.536 77.3038C255.419 72.3215 257.645 67.4755 260.197 62.8006C260.803 61.6962 261.434 60.6156 262.053 59.5231C263.219 57.4712 261.962 59.727 261.724 60.0178C262.087 59.5689 262.398 58.9377 262.729 58.4254C264.261 56.0419 265.879 53.7086 267.583 51.4253C270.795 47.1267 274.292 43.0491 278.052 39.2204C278.899 38.2787 279.803 37.3895 280.758 36.5578C278.241 38.5474 281.193 36.183 281.845 35.6059C283.84 33.8603 285.871 32.1679 287.983 30.5716C289.939 29.09 291.952 27.6881 294.035 26.3904C294.523 26.0881 295.016 25.7881 295.512 25.4954C295.917 25.2543 297.487 24.1927 295.958 25.205C294.429 26.2173 295.983 25.2163 296.432 24.9758C297.076 24.6512 297.725 24.329 298.385 24.0112C300.61 22.9867 302.904 22.1177 305.25 21.4105C305.7 21.2748 307.478 20.623 305.758 21.2272C304.038 21.8313 305.758 21.2272 306.261 21.1389C307.513 20.8886 308.783 20.6949 310.058 20.5584C311.333 20.4219 312.616 20.4049 313.901 20.3279C315.62 20.2357 311.45 20.1567 313.161 20.3172C313.743 20.3801 314.301 20.3892 314.856 20.4584C315.993 20.5556 317.118 20.7107 318.232 20.9238C318.79 21.0328 319.347 21.1518 319.905 21.2808C320.321 21.3739 320.728 21.4749 321.135 21.5884C319.34 21.0489 318.916 20.9362 319.863 21.2502C320.897 21.6718 321.96 22.0271 322.973 22.4946C323.483 22.7207 323.98 22.9774 324.474 23.2392L324.838 23.4371C325.811 23.9946 325.801 23.9901 324.807 23.4235L324.057 22.9688C324.405 23.2024 324.748 23.4462 325.082 23.6979C325.62 24.0951 326.144 24.5103 326.659 24.9459C327.034 25.2707 327.392 25.6187 327.762 25.9536C329.415 27.4553 326.324 24.1998 327.265 25.4223C327.866 26.2011 328.494 26.9311 329.049 27.7445C329.295 28.0977 331.179 31.062 329.967 29.1154C328.755 27.1688 330.475 30.3779 330.711 30.9888C331.114 32.0215 331.412 33.069 331.759 34.1318C332.245 35.6651 331.235 31.514 331.504 33.1097C331.582 33.5956 331.689 34.0701 331.776 34.5605C331.961 35.6591 332.095 36.7642 332.18 37.8757C332.259 38.856 332.172 39.8914 332.299 40.8569C332.266 40.6287 332.477 37.7021 332.3 39.7955C332.244 40.4175 332.213 41.0382 332.152 41.6579C331.928 43.7557 331.562 45.8359 331.057 47.8843C330.526 50.0891 332.009 44.9259 331.012 47.9863C330.703 48.9171 330.377 49.8463 330.043 50.7658C328.731 54.342 327.218 57.8413 325.512 61.247C324.736 62.8064 323.92 64.3442 323.065 65.8606C322.633 66.6148 322.19 67.3645 321.751 68.1215C321.312 68.8786 320.379 70.0881 322.522 66.8771C322.158 67.4234 321.822 67.9884 321.471 68.5341C319.445 71.6572 317.263 74.6801 314.938 77.5848C312.613 80.4895 310.112 83.3224 307.503 86.0156C306.264 87.2967 304.973 88.5002 303.713 89.7473C306.638 86.8523 304.43 89.0648 303.677 89.7315C302.846 90.4776 302.004 91.2108 301.152 91.9313C295.298 96.882 289.019 101.308 282.388 105.157C281.58 105.604 280.811 106.057 280.021 106.506C278.262 107.514 280.988 105.989 281.098 105.934C280.692 106.132 280.296 106.366 279.894 106.572C278.08 107.525 276.251 108.439 274.407 109.313C270.88 110.963 267.289 112.461 263.634 113.806C259.983 115.158 256.229 116.344 252.451 117.39C251.561 117.636 250.658 117.816 249.771 118.094C253.666 116.922 250.203 117.974 249.229 118.189C247.309 118.611 245.379 118.994 243.44 119.339C235.518 120.701 227.49 121.361 219.45 121.31C217.844 121.312 222.259 121.389 220.66 121.334C220.19 121.32 219.725 121.309 219.252 121.289C218.316 121.252 217.378 121.207 216.438 121.152C214.321 121.027 212.209 120.845 210.101 120.607C206.089 120.158 202.104 119.512 198.145 118.668C196.285 118.275 194.421 117.833 192.551 117.342C191.524 117.07 188.002 115.807 191.996 117.218C190.973 116.856 189.911 116.58 188.876 116.244C184.92 114.949 181.034 113.45 177.233 111.754C173.344 110.015 169.547 108.075 165.858 105.943C164.888 105.378 162.016 103.129 165.172 105.565C164.366 104.946 163.424 104.455 162.574 103.895C160.609 102.617 158.688 101.271 156.809 99.8568C153.148 97.1347 149.631 94.2253 146.27 91.1402C144.635 89.6402 143.045 88.1057 141.485 86.5297L140.31 85.3256C138.753 83.7445 140.631 85.6628 140.827 85.896C139.907 84.8049 138.876 83.8112 137.962 82.7224C135.164 79.5178 132.659 76.0694 130.476 72.4184C129.843 71.3564 129.038 68.7791 130.201 72.0341C129.8 71.1244 129.353 70.2358 128.861 69.3716C127.895 67.3487 127.016 65.2875 126.226 63.1881C125.518 61.3164 124.882 59.4238 124.318 57.5103C124.046 56.5965 123.928 55.4582 123.517 54.6107C124.575 56.8067 123.996 56.6537 123.757 55.5835C123.595 54.8468 123.426 54.1129 123.277 53.3757C122.416 49.1549 121.846 44.8801 121.57 40.5813C121.439 38.5546 121.369 36.5242 121.359 34.4902C121.39 33.9812 121.392 33.4708 121.366 32.9616C121.722 35.8344 121.31 34.932 121.355 33.976C121.411 32.7073 121.457 31.434 121.545 30.1613C121.845 25.8438 122.405 21.5482 123.22 17.2977C123.604 15.3145 124.039 13.329 124.535 11.3706C124.657 10.888 125.744 7.08667 125.046 9.36408C124.426 11.3832 124.949 9.70568 125.116 9.20601C125.305 8.60625 125.497 8.00799 125.692 7.41125C127.243 2.72034 129.105 -1.86187 131.266 -6.30487C132.428 -8.70616 133.675 -11.0615 135.008 -13.3708C135.322 -13.9148 135.652 -14.452 135.956 -15.0005C136.856 -16.603 134.643 -12.9468 135.635 -14.4962C136.401 -15.6879 137.153 -16.874 137.95 -18.0522C141.039 -22.6247 144.443 -26.9772 148.136 -31.0781C149.828 -32.9595 151.579 -34.7846 153.389 -36.5533C153.701 -36.86 155.189 -38.2874 153.894 -37.0612C152.39 -35.6354 154.683 -37.767 154.795 -37.8821C155.816 -38.8084 156.868 -39.7088 157.931 -40.5921C161.713 -43.6854 165.706 -46.5107 169.881 -49.0473C171.345 -49.9542 167.741 -47.9766 169.286 -48.7375C169.801 -48.9912 170.308 -49.2669 170.846 -49.5041C172.014 -50.0726 173.196 -50.6002 174.392 -51.0868C175.461 -51.516 176.544 -51.9124 177.641 -52.2763C178.184 -52.4563 178.742 -52.612 179.286 -52.7671C181.514 -53.4697 177.545 -52.4591 179.048 -52.7386C181.419 -53.2222 183.821 -53.5396 186.237 -53.6885C186.808 -53.6499 187.382 -53.6631 187.951 -53.728C187.623 -53.6354 184.989 -53.9304 187.21 -53.7087C188.487 -53.588 189.75 -53.4917 191.021 -53.2884C191.378 -53.2276 194.657 -52.3781 194.747 -52.4847C194.596 -52.3078 191.648 -53.6146 193.874 -52.6889C194.384 -52.4628 194.921 -52.2979 195.438 -52.0871C196.458 -51.635 197.462 -51.1471 198.455 -50.6337C200.223 -49.7217 197.603 -50.7491 197.683 -51.1224C197.631 -51.0051 199.584 -49.7246 199.701 -49.6176C200.464 -48.9987 201.127 -48.1803 201.915 -47.605C201.698 -47.7623 199.93 -50.0103 201.14 -48.3758C201.43 -47.9847 201.755 -47.6151 202.053 -47.2268C202.639 -46.4424 203.169 -45.6154 203.684 -44.7952C204.199 -43.975 204.151 -43.0937 203.19 -45.7462C203.436 -45.0759 203.822 -44.417 204.133 -43.7422C204.509 -42.8431 204.845 -41.9197 205.145 -40.9871C205.258 -40.5118 205.396 -40.043 205.56 -39.5829C205.463 -39.8031 204.959 -42.6317 205.293 -40.5919C205.667 -38.3953 205.907 -36.1781 206.012 -33.9525C206.056 -32.676 205.433 -33.0741 206.05 -35.0156C205.976 -34.521 205.948 -34.0206 205.967 -33.5209C205.893 -32.5286 205.777 -31.5367 205.628 -30.5534C205.479 -29.5701 205.29 -28.5923 205.067 -27.6231C204.914 -27.1508 204.792 -26.6687 204.702 -26.1802C205.297 -28.1557 205.439 -28.6542 205.132 -27.686C204.996 -27.2702 204.856 -26.8566 204.703 -26.4425C203.853 -24.0765 202.821 -21.7801 201.615 -19.5742C201.373 -18.9932 201.063 -18.4425 200.693 -17.9332C202.271 -19.3873 201.632 -19.3902 200.975 -18.4183C200.089 -17.1086 199.204 -15.7989 198.228 -14.5475C196.681 -12.518 195.016 -10.5778 193.272 -8.70898C192.398 -7.76614 191.501 -6.84386 190.581 -5.94214C190.146 -5.52491 189.681 -4.99891 189.197 -4.59692C191.702 -6.69585 189.161 -4.61275 188.764 -4.23972C181.603 2.1102 173.898 7.81871 165.738 12.8199C163.873 13.9702 161.989 15.0831 160.084 16.1586L158.648 16.9619C156.213 18.3233 160.621 15.939 158.986 16.7764C157.891 17.3341 156.804 17.9139 155.698 18.4671C151.522 20.5452 147.27 22.4471 142.941 24.1727C138.601 25.9097 134.182 27.4105 129.728 28.7307C128.674 29.0443 127.626 29.3426 126.566 29.629C125.879 29.8006 125.235 29.9728 124.574 30.1558C122.944 30.5984 126.998 29.589 125.353 29.9699C123.074 30.4975 120.8 31.0025 118.51 31.4333C113.782 32.3255 109.013 32.9766 104.219 33.3841C102.04 33.565 99.8505 33.699 97.6636 33.7728C96.6712 33.8088 95.6731 33.8301 94.6818 33.8361C94.0498 33.793 93.4157 33.7932 92.7837 33.8367C93.8054 33.6794 95.4319 33.9062 93.3932 33.8384C84.1713 33.5325 75.0141 32.1773 66.0987 29.7991C62.9297 28.9495 68.5251 30.5757 65.3905 29.6072C64.1971 29.2429 63.0151 28.8532 61.8399 28.4482C59.6296 27.6799 57.449 26.8353 55.2982 25.9144C53.1753 25.0039 51.0835 24.0095 49.0404 22.933C48.0905 22.4326 47.1541 21.9016 46.2156 21.3757C45.277 20.8499 44.9261 20.072 47.0754 21.9277C46.5423 21.5332 45.9841 21.1737 45.4044 20.8514C43.5461 19.6214 41.7522 18.2967 40.0298 16.8826C39.2276 16.2281 38.4401 15.5678 37.6848 14.8486C37.3015 14.5018 36.9256 14.1521 36.5593 13.7945C35.7434 13.0057 34.9117 11.2338 36.6717 14.0091C35.5937 12.3109 33.9188 10.8303 32.7219 9.15262C32.1069 8.2821 31.5203 7.39361 30.9619 6.48718C30.6919 6.05018 30.4545 5.51178 30.1488 5.11389C32.0144 7.58215 30.701 6.13966 30.2304 5.15007C29.3094 3.23975 28.5121 1.27224 27.8434 -0.740266C27.6002 -1.4582 27.4794 -3.30558 26.9453 -3.78029C27.6619 -3.13923 27.4877 -1.30064 27.1773 -2.92698C27.0782 -3.4468 26.9694 -3.9587 26.8777 -4.48138C26.5169 -6.55847 26.2933 -8.65704 26.2083 -10.7635C26.1966 -11.1775 26.4336 -13.5983 26.1577 -11.4754C25.9128 -9.54609 26.1597 -11.2732 26.188 -11.7914C26.2576 -12.9808 26.373 -14.1499 26.5242 -15.3032C27.3578 -21.9196 22.7485 -29.088 15.7884 -29.8243C9.02931 -30.5873 2.16346 -26.2361 1.27196 -19.1449C-1.65149 4.02542 9.07703 26.7129 28.2617 39.8785C46.0887 52.1556 68.1169 58.3144 89.6398 59.0326C133.716 60.4986 177.319 41.816 208.954 11.5189C218.588 2.29951 226.161 -8.79726 229.744 -21.7244C232.586 -31.9775 232.019 -43.9007 227.642 -53.6445C222.084 -66.0532 211.898 -74.0893 198.921 -77.6634C187.24 -80.8704 174.15 -78.9977 163.212 -74.0781C151.758 -68.9173 142.139 -61.162 133.252 -52.4167C124.365 -43.6715 117.024 -33.4296 110.946 -22.4995C100.418 -3.55424 95.4339 18.001 96.0298 39.6198C96.5633 59.4659 102.921 80.0634 115.54 95.6085C128.979 112.075 145.957 125.301 165.212 134.302C199.376 150.184 239.409 150.365 274.409 137.008C307.416 124.415 336.718 99.5703 351.037 66.8692C355.286 57.1602 358.046 47.1755 357.628 36.514C357.403 30.6933 356.031 24.974 353.59 19.6848C351.148 14.3955 347.686 9.64044 343.401 5.69268C333.916 -2.93535 320.131 -6.00747 307.634 -4.81147C295.591 -3.66401 284.142 1.80372 274.454 8.8455C237.468 35.7146 215.694 83.9522 223.919 129.429C227.832 151.053 237.792 170.795 253.762 186.007C268.745 200.282 289.15 209.894 309.731 212.202C320.911 213.455 331.654 212.5 342.525 209.808C345.466 209.08 348.429 205.714 349.598 203.077C350.868 200.212 351.113 196.232 349.838 193.312C348.563 190.392 346.279 187.463 343.1 186.237C339.734 184.922 336.815 185.135 333.338 185.998L333.313 185.987Z" fill="#EAEBED"/>
</svg>
