<svg width="20" height="20" viewBox="0 0 20 20" fill="none" xmlns="http://www.w3.org/2000/svg">
<g clip-path="url(#clip0_589_5054)">
<path d="M18.125 15.417V16.667C18.125 17.33 17.8616 17.9659 17.3927 18.4347C16.9239 18.9036 16.288 19.167 15.625 19.167H3.125C2.46196 19.167 1.82607 18.9036 1.35723 18.4347C0.888392 17.9659 0.625 17.33 0.625 16.667V7.91699C0.625 7.25395 0.888392 6.61807 1.35723 6.14923C1.82607 5.68038 2.46196 5.41699 3.125 5.41699H15.625C16.288 5.41699 16.9239 5.68038 17.3927 6.14923C17.8616 6.61807 18.125 7.25395 18.125 7.91699V9.16699" stroke="white" stroke-width="2" stroke-linecap="round" stroke-linejoin="round"/>
<path d="M15.625 5.4167L13.6842 1.53503C13.6107 1.38814 13.5092 1.25715 13.3851 1.14954C13.2611 1.04193 13.1171 0.959825 12.9612 0.9079C12.8055 0.855967 12.641 0.835242 12.4772 0.846908C12.3134 0.858567 12.1535 0.902392 12.0067 0.975867L3.125 5.4167" stroke="white" stroke-width="2" stroke-linecap="round" stroke-linejoin="round"/>
<path d="M18.125 15.417C18.4565 15.417 18.7745 15.2853 19.0089 15.0509C19.2433 14.8165 19.375 14.4985 19.375 14.167V10.417C19.375 10.0855 19.2433 9.76749 19.0089 9.53308C18.7745 9.29866 18.4565 9.16699 18.125 9.16699H15C14.1712 9.16699 13.3763 9.49624 12.7902 10.0822C12.2042 10.6683 11.875 11.4632 11.875 12.292C11.875 13.1208 12.2042 13.9157 12.7902 14.5017C13.3763 15.0877 14.1712 15.417 15 15.417H18.125Z" stroke="white" stroke-width="2" stroke-linecap="round" stroke-linejoin="round"/>
<path d="M15 12.6045C14.8274 12.6045 14.6875 12.4646 14.6875 12.292C14.6875 12.1194 14.8274 11.9795 15 11.9795" stroke="white" stroke-width="2"/>
<path d="M15 12.6045C15.1726 12.6045 15.3125 12.4646 15.3125 12.292C15.3125 12.1194 15.1726 11.9795 15 11.9795" stroke="white" stroke-width="2"/>
</g>
<defs>
<clipPath id="clip0_589_5054">
<rect width="20" height="20" fill="white"/>
</clipPath>
</defs>
</svg>
