<svg width="233" height="200" viewBox="0 0 233 200" fill="none" xmlns="http://www.w3.org/2000/svg">
<path d="M21.6653 71.5411C24.8047 67.1328 27.9511 62.7248 31.2058 58.4135C32.7486 56.3753 34.3152 54.3559 35.9226 52.3666C36.3923 51.7906 36.8431 51.1645 37.3464 50.6254C37.0948 50.895 35.7183 52.5257 37.1265 50.893C38.1108 49.7609 39.095 48.6288 40.096 47.5152C43.5794 43.6336 47.326 39.9968 51.3093 36.6303C52.9226 35.2892 54.592 34.0317 56.2788 32.7786C57.9656 31.5256 55.7831 33.2301 55.5961 33.2387C55.9988 33.2088 56.7865 32.451 57.1456 32.2184C58.1876 31.548 59.2436 30.903 60.3138 30.2833C62.1337 29.2279 63.9933 28.2531 65.8927 27.3589C66.7849 26.9372 67.6865 26.5405 68.5909 26.1617C69.1614 25.9251 69.7316 25.6956 70.3048 25.4768C72.623 24.5851 69.9968 25.6696 69.9447 25.5756C69.9447 25.5756 75.7798 23.9136 76.2953 23.8011C78.4362 23.327 80.6382 23.215 82.7695 22.7967C79.8341 23.4015 82.5354 22.8347 83.5088 22.7972C84.613 22.7754 85.7154 22.791 86.8161 22.8442C87.8526 22.8907 88.8909 22.976 89.9202 23.1032C90.3649 23.1563 90.8455 23.2711 91.2848 23.2887C88.434 23.1899 90.2028 23.0816 91.1299 23.2883C93.0696 23.7162 94.9781 24.2766 96.8419 24.9654C97.6662 25.2658 98.8841 26.0499 99.7286 26.1365C99.5044 26.1116 97.2402 24.879 98.9243 25.7843C99.5289 26.1163 100.163 26.4075 100.749 26.7632C102.347 27.666 103.883 28.6729 105.348 29.7774C105.684 30.0878 106.046 30.3692 106.43 30.6184C104.312 29.6359 104.912 29.3057 105.899 30.2055C106.738 30.9713 107.543 31.7672 108.308 32.5999C108.992 33.3512 109.647 34.127 110.273 34.9271C110.542 35.2747 110.788 35.6774 111.076 36.0082C110.948 35.8682 109.484 33.5229 110.466 35.1759C111.494 36.9198 112.41 38.7269 113.21 40.5865C114.143 42.7478 112.623 38.5336 113.005 40.052C113.115 40.4975 113.264 40.9342 113.381 41.38C113.635 42.3958 113.875 43.3968 114.028 44.4359C114.103 44.8937 114.174 45.3338 114.227 45.8047C114.502 47.663 114.17 45.1822 114.184 44.954C114.14 46.0857 114.288 47.2443 114.272 48.3843C114.237 50.3412 114.086 52.2939 113.821 54.2323C113.762 54.6766 113.452 55.5384 113.567 55.9524C113.515 55.7703 114.101 53.2423 113.701 55.1561C113.459 56.3064 113.224 57.457 112.954 58.5989C110.996 66.7755 107.892 74.5941 105.865 82.7392C103.515 92.1821 102.282 102.07 104.066 111.744C105.956 121.934 111.871 131.336 120.699 136.906C129.352 142.366 139.5 143.641 149.475 142.77C170.63 140.922 186.289 125.921 202.706 114.185C203.288 113.769 204.888 112.487 202.68 114.208C203.129 113.86 203.639 113.557 204.107 113.245C205.008 112.648 205.914 112.058 206.834 111.497C208.556 110.437 210.308 109.457 212.09 108.557C213.872 107.657 215.722 106.828 217.638 106.071C218.054 105.908 218.493 105.771 218.903 105.593C216.22 106.749 217.329 106.13 218.029 105.91C219.082 105.591 220.168 105.25 221.264 104.986C223.174 104.459 225.115 104.053 227.076 103.77C227.5 103.72 227.962 103.71 228.378 103.628C228.2 103.662 225.587 103.765 227.43 103.723C228.512 103.695 229.583 103.669 230.666 103.714C231.518 103.75 232.372 103.82 233.226 103.922C233.648 104.011 234.074 104.073 234.503 104.107C232.049 104.193 232.719 103.771 233.841 104.036C234.773 104.262 235.694 104.535 236.599 104.853C237.008 104.992 237.414 105.142 237.811 105.298L238.416 105.542C239.514 106.025 239.214 105.885 237.517 105.122C238.003 105.656 239.174 106.005 239.818 106.395C240.462 106.785 241.232 107.263 241.915 107.732C242.311 108.005 244.864 110.026 243.084 108.514C241.304 107.002 243.762 109.177 244.149 109.566C244.701 110.127 245.234 110.713 245.742 111.315C245.973 111.569 246.161 111.856 246.365 112.095C247.441 113.379 245.469 110.89 245.508 110.814C245.372 111.241 247.488 114.28 247.756 114.884C247.944 115.319 248.843 117.715 248.055 115.508C247.268 113.301 248.13 115.877 248.275 116.42C248.656 117.833 248.951 119.267 249.157 120.716C249.232 121.255 249.491 123.989 249.309 121.723C249.126 119.457 249.324 122.315 249.342 122.77C249.396 124.305 249.401 125.837 249.363 127.367C249.036 140.802 246.478 154.16 249.839 167.464C251.24 173.007 252.893 178.71 256.076 183.518C259.759 189.144 265.035 193.545 271.227 196.158C280.775 200.358 291.879 199.887 301.738 197.155C306.911 195.726 311.945 193.789 316.961 191.876C322.528 189.75 324.748 181.551 321.928 176.574C318.622 170.731 312.591 169.271 306.614 171.56C305.497 171.985 304.375 172.413 303.258 172.831C302.631 173.065 302.008 173.295 301.382 173.522C300.662 173.787 299.836 174.465 301.893 173.346C299.944 174.407 297.167 174.868 295.024 175.391C292.88 175.914 290.142 176.839 288.001 176.605C288.215 176.626 290.5 176.539 288.593 176.517C288.104 176.511 287.62 176.541 287.118 176.513C285.894 176.496 284.688 176.382 283.472 176.263C281.554 176.083 283.903 176.309 284.168 176.424C283.7 176.284 283.222 176.176 282.74 176.101C281.684 175.836 280.644 175.51 279.626 175.123C277.55 174.319 279.957 174.875 279.992 175.349C279.991 175.303 278.663 174.626 278.713 174.681C278.303 174.443 277.899 174.191 277.501 173.926C277.2 173.728 276.91 173.52 276.627 173.306C275.913 172.757 276.228 173.037 277.583 174.141C277.46 173.579 276.039 172.542 275.585 172.073C273.736 170.145 276.358 173.659 275.622 172.194C275.366 171.699 275.056 171.234 274.793 170.739C274.725 170.612 273.138 167.342 273.252 167.291C273.367 167.24 274.092 169.976 273.408 167.668C273.163 166.854 272.915 166.042 272.691 165.222C272.183 163.38 271.69 161.525 271.338 159.649C271.195 158.882 271.064 158.102 270.948 157.31C270.815 156.346 270.734 153.166 270.866 157.088C270.764 153.981 270.66 150.909 270.794 147.802C271.072 141.425 271.849 135.086 272.021 128.703C272.228 121.104 271.406 113.769 268.793 106.614C266.059 99.1125 260.492 92.9318 253.974 88.4446C237.694 77.2503 217.088 79.981 200.466 88.7703C191.276 93.6295 183.149 100.35 174.878 106.588C173.852 107.365 172.817 108.136 171.773 108.903C171.114 109.389 169.374 110.192 168.982 110.906C169.535 109.897 170.533 109.864 169.371 110.632C168.899 110.947 168.424 111.266 167.945 111.581C166.632 112.433 165.299 113.263 163.939 114.05C161.927 115.262 159.853 116.371 157.726 117.369C156.903 117.742 156.065 118.06 155.229 118.411C153.05 119.323 157.282 117.774 155.75 118.246C155.215 118.396 154.647 118.576 154.111 118.755C152.131 119.331 150.115 119.778 148.076 120.094C147.26 120.223 146.082 120.117 145.353 120.438C146.808 119.786 147.396 120.329 146.203 120.338C145.533 120.341 144.845 120.388 144.165 120.387C142.247 120.383 140.02 119.722 138.16 119.907C138.382 119.886 140.85 120.523 139.083 120.043C138.659 119.931 138.23 119.844 137.805 119.732C136.758 119.452 135.726 119.117 134.714 118.727C134.328 118.532 133.928 118.367 133.518 118.233C135.902 118.756 135.227 119.047 134.172 118.472C133.322 118.009 132.498 117.497 131.707 116.937C131.376 116.661 131.029 116.403 130.668 116.165C130.823 116.247 132.875 118.198 131.514 116.858C130.708 116.086 129.945 115.273 129.226 114.42C128.981 114.036 128.702 113.674 128.392 113.341C129.82 114.364 129.6 115.258 128.998 114.176C128.5 113.283 128.006 112.445 127.579 111.534C127.345 111.033 127.146 110.52 126.919 110.013C126.39 108.797 127.364 109.608 127.241 110.919C127.327 110.025 126.596 108.61 126.405 107.685C126.215 106.76 126.133 105.911 125.981 105.006C125.662 103.181 126.052 105.615 126.019 105.867C126.039 105.292 126.008 104.717 125.924 104.148C125.858 101.932 125.933 99.7155 126.148 97.5105C126.242 96.5714 126.355 95.6332 126.486 94.6959C126.6 94.234 126.67 93.7622 126.694 93.2869C127.139 94.0478 126.258 95.625 126.637 93.7031C127.074 91.5083 127.592 89.3255 128.19 87.1549C130.419 79.0617 133.474 71.2268 135.192 62.9927C137.154 53.5733 137.983 43.6626 134.915 34.349C131.58 24.188 125.091 15.8818 116.35 9.72041C99.2786 -2.25507 77.6602 -1.98518 58.9718 5.57403C39.2864 13.5358 24.4774 29.6556 11.9543 46.2202C8.68857 50.5414 5.54219 54.9494 2.41384 59.3477C-1.03762 64.1952 0.856851 72.1177 5.97633 75.062C11.5838 78.2693 17.9731 76.7291 21.6794 71.5418L21.6653 71.5411Z" fill="#EAEBED"/>
</svg>
