<svg width="155" height="220" viewBox="0 0 155 220" fill="none" xmlns="http://www.w3.org/2000/svg">
<path d="M78.5497 217.228C59.3068 204.112 39.3499 190.596 24.6302 172.289C9.9105 153.982 -0.973112 130.419 1.14622 106.252C3.06841 84.334 15.3887 62.6919 35.3593 52.4897C52.8697 43.5174 72.945 44.7986 90.1251 53.729C102.947 60.3895 113.248 71.325 123.16 81.6233C127.924 86.5656 132.706 91.5213 137.924 95.9989L139.629 97.434C141.14 98.7015 136.395 94.9281 139.112 96.9916C140.405 97.9926 141.784 98.9624 143.178 99.8733C144.474 100.71 145.771 101.508 147.121 102.247C147.77 102.594 148.374 102.926 149.011 103.239L150.11 103.764C152.143 104.785 146.855 102.466 148.503 103.046C149.943 103.558 151.342 104.141 152.809 104.574C154.113 104.958 156.512 104.987 157.627 105.69C157.627 105.69 153.349 105.161 155.516 105.35L156.785 105.484C157.54 105.55 158.293 105.596 159.044 105.623C161.055 105.68 163.068 105.62 165.071 105.441C168.761 105.132 161.699 105.965 165.288 105.405C166.235 105.258 167.182 105.091 168.129 104.897C170.21 104.464 172.264 103.911 174.281 103.241C175.6 102.804 178.343 101.166 174.279 103.339C175.047 102.926 175.898 102.632 176.685 102.246C178.571 101.335 180.396 100.301 182.148 99.1522C182.685 98.8007 185.248 96.9423 182.976 98.6286C180.704 100.315 183.156 98.4414 183.689 97.9847C185.132 96.7557 186.501 95.4429 187.79 94.0529C188.425 93.3618 188.996 92.5972 189.644 91.9194C189.604 91.9581 187.26 95.1005 188.545 93.2523C188.814 92.8632 189.102 92.4941 189.371 92.1115C190.45 90.5734 191.437 88.9732 192.327 87.3192C192.72 86.5975 193.081 85.8555 193.448 85.1202C194.923 82.179 192.335 88.0152 193.161 85.7715C193.85 83.8669 194.539 81.9884 195.092 80.0354C195.456 78.683 196.537 76.1616 196.247 74.7581C196.248 74.7122 195.72 78.9896 195.959 76.5846C195.965 76.2236 196.051 75.8575 196.09 75.4972C196.207 74.403 196.293 73.3016 196.344 72.2193C196.436 70.3632 196.41 68.5049 196.338 66.6458C196.301 65.7721 196.219 64.8975 196.155 64.0167C195.989 61.5914 196.367 65.747 196.367 65.7601C196.349 65.1214 196.254 64.4873 196.086 63.871C195.38 59.8878 194.334 55.973 192.957 52.1698C192.582 51.1063 191.732 50.2838 193.516 53.5387C193.262 53.0812 193.082 52.52 192.887 52.0504C192.42 51.005 191.927 49.9656 191.421 48.9391C190.288 46.6476 189.056 44.4004 187.732 42.2171C186.522 40.2131 185.245 38.2561 183.903 36.3461C183.551 35.8475 183.16 35.3614 182.821 34.8499C182.981 35.089 185.013 37.6918 183.461 35.7212C182.705 34.7625 181.955 33.8039 181.172 32.8578C169.121 18.202 153.921 6.65464 141.19 -7.33704C134.759 -14.3833 128.452 -22.051 124.562 -30.8246C120.498 -39.929 118.138 -49.7036 117.6 -59.6619C116.514 -78.2527 122.734 -97.1079 135.147 -110.989C150.227 -127.869 173.862 -132.131 195.211 -127.649C217.319 -123.024 236.381 -108.953 252.098 -93.3326C259.745 -85.733 266.898 -77.6762 274.384 -69.9219C278.04 -66.1284 281.776 -62.3991 285.679 -58.8573C287.556 -57.1435 289.501 -55.5072 291.438 -53.8646C292.691 -52.7921 290.43 -54.6636 290.417 -54.6704C290.973 -54.285 291.508 -53.8701 292.02 -53.4276C293.236 -52.5001 294.466 -51.603 295.709 -50.7363C299.467 -48.1262 303.416 -45.8026 307.523 -43.7851C308.53 -43.2881 309.723 -43.2932 306.274 -44.3259C306.795 -44.1722 307.341 -43.8737 307.835 -43.6745C308.753 -43.3038 309.678 -42.9854 310.603 -42.6211C312.73 -41.8613 314.891 -41.195 317.083 -40.6223C319.112 -40.094 321.278 -39.8915 323.28 -39.2914C318.918 -40.5766 322.025 -39.4778 323.464 -39.3276C324.57 -39.2095 325.676 -39.1177 326.79 -39.052C328.846 -38.9368 330.91 -38.92 332.97 -39.0082C334.059 -39.0545 335.137 -39.1864 336.219 -39.2395C337.84 -39.3289 334.051 -38.9562 334.249 -39.0118C335.033 -39.189 335.828 -39.3196 336.628 -39.4029C338.454 -39.7381 340.259 -40.1796 342.034 -40.7251C343.016 -41.0228 344.014 -41.5106 345.008 -41.7556C344.837 -41.7127 341.48 -40.1573 343.57 -41.21C344.039 -41.4445 344.515 -41.6462 344.984 -41.8808C346.836 -42.7998 348.5 -44.2474 350.351 -45.1009C350.437 -45.1387 347.763 -42.9606 348.843 -43.9919C349.217 -44.3594 349.661 -44.6339 350.061 -45.0075C350.966 -45.7924 351.833 -46.6239 352.661 -47.4889C353.122 -47.973 355.158 -50.3922 353.63 -48.4958C351.994 -46.47 354.216 -49.3913 354.553 -49.904C355.226 -50.8899 355.821 -51.91 356.39 -52.9568C356.674 -53.4704 356.926 -53.9977 357.197 -54.5181C358.412 -56.8664 356.242 -52.0207 356.869 -53.7558C357.642 -55.7898 358.31 -57.8616 358.874 -59.9633C359.127 -60.9501 359.341 -61.9244 359.53 -62.9517C359.652 -63.5732 359.943 -65.5703 359.598 -63.1344C359.224 -60.5151 359.599 -63.1868 359.649 -63.7899C361.85 -83.3071 356.702 -102.804 357.79 -122.354C358.405 -133.417 360.749 -143.965 365.866 -153.813C370.088 -161.768 375.936 -168.744 383.029 -174.286C397.833 -185.899 416.79 -192.896 435.77 -191.241C445.605 -190.482 455.154 -187.57 463.741 -182.71C470.561 -178.814 473.174 -168.678 468.757 -162.074C464.131 -155.158 455.444 -152.883 448.15 -157.049C447.261 -157.557 446.365 -158.046 445.449 -158.502C445.111 -158.672 444.753 -158.816 444.422 -158.999C442.819 -159.868 447.619 -157.787 445.885 -158.317C443.962 -158.922 442.114 -159.696 440.157 -160.243C439.309 -160.475 438.454 -160.68 437.599 -160.86C436.168 -161.167 433.016 -161.184 437.861 -160.901C435.982 -161.013 434.119 -161.315 432.226 -161.375C430.333 -161.435 428.437 -161.39 426.547 -161.259C425.825 -161.213 422.699 -160.881 425.523 -161.198C428.492 -161.533 424.451 -160.981 423.761 -160.855C419.946 -160.142 416.435 -158.825 412.745 -157.716C417.266 -159.073 414.006 -158.212 412.829 -157.668C412.016 -157.295 411.216 -156.909 410.422 -156.496C408.606 -155.569 406.838 -154.551 405.124 -153.446C404.375 -152.967 403.651 -152.448 402.915 -151.955C400.978 -150.677 404.064 -152.808 404.151 -152.892C403.797 -152.557 403.333 -152.25 402.954 -151.948C401.48 -150.756 400.066 -149.491 398.718 -148.156C397.383 -146.828 396.229 -145.306 394.894 -143.977C394.981 -144.061 397.224 -147.08 395.899 -145.193C395.684 -144.882 395.449 -144.584 395.227 -144.279C394.569 -143.359 393.94 -142.418 393.342 -141.457C392.411 -139.957 391.616 -138.396 390.802 -136.822C389.723 -134.753 391.41 -138.196 391.438 -138.307C391.274 -137.828 391.084 -137.358 390.869 -136.899C390.504 -135.947 390.179 -134.981 389.867 -134.009C389.217 -131.893 388.693 -129.741 388.298 -127.564C387.576 -123.848 388.552 -130.113 388.295 -127.406C388.146 -126.011 387.99 -124.615 387.886 -123.212C387.575 -118.301 387.562 -113.375 387.848 -108.462C388.333 -98.869 389.528 -89.3224 389.961 -79.7172C390.962 -58.8828 386.771 -36.2038 369.666 -22.3731C353.039 -8.8818 331.473 -6.63798 311.082 -11.2006C290.449 -15.8069 273.372 -28.7267 258.553 -43.274C251.118 -50.581 244.163 -58.352 236.975 -65.8975C233.435 -69.6036 229.842 -73.245 226.109 -76.7773C224.278 -78.4968 222.414 -80.1973 220.496 -81.8265C219.998 -82.2489 219.488 -82.6584 218.991 -83.0873C217.738 -84.1533 220.07 -82.2214 220.064 -82.228C218.818 -82.9722 217.664 -84.0692 216.493 -84.9172C212.314 -87.9409 207.919 -90.6518 203.343 -93.0277C202.31 -93.5581 201.27 -94.0754 200.223 -94.5666C199.775 -94.778 199.313 -94.9635 198.871 -95.1945C202.066 -93.5099 200.556 -94.4688 199.709 -94.7858C197.261 -95.7154 194.839 -96.6577 192.335 -97.4044C190.031 -98.0975 187.691 -98.665 185.325 -99.1041C181.895 -99.7426 187.78 -98.9293 185.07 -99.1415C183.814 -99.2425 182.571 -99.3893 181.307 -99.451C178.955 -99.5649 176.639 -99.4353 174.29 -99.3193C172.283 -99.217 177.479 -99.8274 175.499 -99.462C175.039 -99.3783 174.572 -99.3209 174.112 -99.2371C172.718 -98.9949 171.34 -98.6867 169.979 -98.3125C168.912 -98.0229 167.864 -97.6935 166.808 -97.3249C164.336 -96.5284 167.519 -97.5027 167.727 -97.7353C167.235 -97.4375 166.709 -97.1999 166.161 -97.0278C164.382 -96.1916 162.667 -95.2258 161.029 -94.1384C160.731 -93.9401 160.438 -93.7024 160.133 -93.4978C158.596 -92.5928 162.794 -95.6826 161.462 -94.4983C160.842 -93.9316 160.132 -93.4387 159.526 -92.8849C158.087 -91.5975 156.797 -90.2089 155.52 -88.8004C153.909 -87.0499 157.844 -91.9234 155.681 -88.9945C155.184 -88.3468 154.706 -87.6266 154.248 -86.9257C153.19 -85.3106 152.225 -83.6355 151.36 -81.909C151.197 -81.5836 151.047 -81.2581 150.884 -80.9261C149.832 -78.8769 151.566 -82.4239 151.567 -82.4895C151.304 -81.6802 150.884 -80.9064 150.62 -80.1037C149.932 -78.2578 149.341 -76.3773 148.849 -74.4697C148.419 -72.7902 147.688 -70.7353 147.703 -69.0019C147.703 -69.0019 148.229 -73.1678 147.99 -70.7562C147.983 -70.3821 147.905 -70.0093 147.865 -69.6358C147.747 -68.5154 147.655 -67.3879 147.596 -66.2598C147.499 -64.4956 147.481 -62.7366 147.502 -60.9703C147.53 -59.9654 147.584 -58.9535 147.658 -57.9478C147.691 -57.573 147.743 -57.1914 147.756 -56.8169C147.828 -54.9579 147.209 -60.6932 147.597 -58.1852C148.154 -54.314 149.045 -50.4983 150.259 -46.7811C150.54 -45.949 150.886 -45.1354 151.159 -44.2969C151.161 -44.3953 149.578 -47.9355 150.57 -45.8238C150.778 -45.3671 150.973 -44.9041 151.201 -44.4471C151.992 -42.7426 152.873 -41.0813 153.84 -39.4703C154.358 -38.6121 154.896 -37.7688 155.454 -36.9406C155.665 -36.6348 155.889 -36.3289 156.093 -36.0167C157.332 -34.1895 155.506 -36.9396 155.363 -36.9947C156.053 -36.7199 156.856 -35.0645 157.369 -34.4383C158.224 -33.3597 159.11 -32.2936 160.026 -31.2402C163.007 -27.7738 166.16 -24.4618 169.4 -21.2271C176.041 -14.617 183.05 -8.40078 189.751 -1.86179C204.308 12.3198 217.316 28.8241 223.313 48.5193C228.642 66.2049 226.966 85.2666 218.633 101.748C210.482 117.858 194.608 129.551 177.196 133.706C160.192 137.744 142.909 135.416 128.131 125.931C116.082 118.201 106.459 107.442 96.5182 97.2873C94.2133 94.9226 91.8748 92.6098 89.4636 90.3285C88.2771 89.2178 87.0708 88.1198 85.8376 87.0542C85.2696 86.5583 84.6948 86.0689 84.1134 85.586C81.355 83.292 86.7009 87.5356 84.346 85.7805C81.7446 83.7578 79.0115 81.911 76.1648 80.2525C74.8665 79.5336 73.5661 78.9329 72.267 78.26C76.8137 80.625 74.1729 79.0946 72.9161 78.6194C72.1349 78.3167 71.3467 78.0336 70.5516 77.7766C69.0521 77.2878 67.5276 76.8795 65.9846 76.5535L65.044 76.3661C62.9285 75.8954 67.0573 76.6906 67.1037 76.6586C66.7521 76.8953 65.0039 76.4114 64.4868 76.3694C62.7882 76.2441 61.0839 76.2139 59.382 76.2789C58.5556 76.3037 57.7349 76.3745 56.9146 76.4256C54.6838 76.5436 58.3727 76.2676 58.4782 76.2301C57.7818 76.3934 57.0772 76.519 56.3673 76.6063C54.262 77.0416 52.314 77.8474 50.2655 78.402C50.496 78.3404 53.7015 76.861 51.5387 77.9453C51.1618 78.129 50.7719 78.3059 50.3949 78.4962C49.2575 79.0603 48.1451 79.6839 47.0846 80.3478C46.2362 80.8711 45.4264 81.441 44.6037 81.9976C43.0445 83.0597 47.0644 80.0061 45.6395 81.2544C45.3199 81.531 44.9744 81.7941 44.6483 82.0706C42.8983 83.5558 41.2554 85.1632 39.732 86.8807C39.3969 87.3466 39.0183 87.7796 38.6013 88.1736C38.8068 88.0394 40.8233 85.2195 39.3851 87.2225C38.7936 88.0458 38.1958 88.8623 37.6301 89.7123C36.3428 91.6522 35.1815 93.6731 34.1536 95.7624C32.6915 98.7366 35.0224 93.3423 34.1202 95.7946C33.7689 96.7534 33.3851 97.6985 33.0533 98.6642C32.3096 100.866 31.7114 103.114 31.2626 105.394C30.5431 109.005 31.5014 102.641 31.2646 105.276C31.149 106.626 31.0073 107.963 30.9439 109.321C30.8504 112.008 30.9078 114.698 31.1158 117.379C31.1936 118.535 31.851 119.538 30.9827 116.378C31.0814 116.872 31.1535 117.371 31.1988 117.872C31.3814 119.038 31.5904 120.19 31.8322 121.343C32.384 123.985 33.0819 126.595 33.9225 129.159C34.3079 130.341 35.0955 131.767 35.2836 132.991C35.2836 132.991 34.1003 130.22 34.7879 131.742C35.0653 132.364 35.3229 132.992 35.6003 133.614C36.7185 136.111 37.9494 138.54 39.2929 140.9C40.5643 143.135 41.8956 145.319 43.3262 147.451C43.9968 148.448 44.7002 149.445 45.3848 150.396C46.3314 151.725 44.6423 149.385 44.6229 149.371C45.2053 149.988 45.731 150.657 46.1935 151.369C49.6872 155.693 53.4599 159.784 57.4874 163.615C59.3094 165.358 61.1737 167.061 63.0802 168.723C64.1711 169.674 65.2755 170.606 66.3866 171.532C66.9846 171.941 67.5447 172.404 68.0599 172.914C67.9961 172.447 65.8231 171.148 67.6075 172.551C76.1806 179.268 85.1501 185.44 94.1465 191.573C100.623 195.988 103.829 205.235 99.1627 212.21C94.8328 218.698 85.493 221.959 78.5563 217.228L78.5497 217.228Z" fill="#242424"/>
</svg>
