<svg width="28" height="28" viewBox="0 0 28 28" fill="none" xmlns="http://www.w3.org/2000/svg">
<g clip-path="url(#clip0_1212_3766)">
<path d="M0.875 13.998C0.875 17.479 2.25781 20.8174 4.71922 23.2788C7.18064 25.7402 10.519 27.123 14 27.123C17.481 27.123 20.8194 25.7402 23.2808 23.2788C25.7422 20.8174 27.125 17.479 27.125 13.998C27.125 10.5171 25.7422 7.17869 23.2808 4.71727C20.8194 2.25586 17.481 0.873047 14 0.873047C10.519 0.873047 7.18064 2.25586 4.71922 4.71727C2.25781 7.17869 0.875 10.5171 0.875 13.998Z" fill="white" fill-opacity="0.6" stroke="white" stroke-width="2" stroke-linecap="round" stroke-linejoin="round"/>
<path d="M10.5 18.2154C10.5003 18.5817 10.6061 18.9403 10.8046 19.2482C11.0032 19.5561 11.2862 19.8003 11.6198 19.9518C11.9534 20.1032 12.3235 20.1554 12.686 20.1022C13.0485 20.0489 13.388 19.8925 13.664 19.6515L20.125 14.0002L13.664 8.34536C13.3882 8.10388 13.0486 7.947 12.686 7.89348C12.3233 7.83997 11.9529 7.89209 11.6191 8.04361C11.2853 8.19513 11.0022 8.43963 10.8037 8.74784C10.6053 9.05606 10.4998 9.41494 10.5 9.78153V18.2154Z" fill="white" stroke="white" stroke-width="2" stroke-linecap="round" stroke-linejoin="round"/>
</g>
<defs>
<clipPath id="clip0_1212_3766">
<rect width="28" height="28" fill="white"/>
</clipPath>
</defs>
</svg>
