<svg width="22" height="22" viewBox="0 0 22 22" fill="none" xmlns="http://www.w3.org/2000/svg">
<path d="M19.9656 9.18097L11.2156 1.22941C11.0543 1.08184 10.8436 1 10.625 1C10.4064 1 10.1957 1.08184 10.0344 1.22941L1.28437 9.18097C1.19633 9.26413 1.12581 9.36406 1.07697 9.47489C1.02813 9.58571 1.00196 9.70519 1 9.82628V19.9435C1 20.1755 1.09219 20.3981 1.25628 20.5622C1.42038 20.7263 1.64294 20.8185 1.875 20.8185H19.375C19.6071 20.8185 19.8296 20.7263 19.9937 20.5622C20.1578 20.3981 20.25 20.1755 20.25 19.9435V9.82628C20.248 9.70519 20.2219 9.58571 20.173 9.47489C20.1242 9.36406 20.0537 9.26413 19.9656 9.18097V9.18097Z" stroke="white" stroke-width="2" stroke-linecap="round" stroke-linejoin="round"/>
</svg>
