<svg width="315" height="315" viewBox="0 0 315 315" fill="none" xmlns="http://www.w3.org/2000/svg">
<path fill-rule="evenodd" clip-rule="evenodd" d="M133.638 49.9638L43.4792 155.832C7.74822 191.503 7.74822 249.506 43.4583 285.155L45.5656 287.258C62.8641 304.527 85.8635 314.036 110.328 314.036C134.792 314.036 157.791 304.527 175.09 287.258L280.891 181.641L249.994 151.36L235.256 151.392L144.684 257.661C135.396 266.934 123.075 272.03 109.969 272.03C96.8636 272.03 84.542 266.934 75.2749 257.683L73.0845 255.497C63.8174 246.246 58.7133 233.946 58.7133 220.862C58.7133 207.78 63.8174 195.48 73.0845 186.229L179.288 80.2097L149.05 49.9638H133.638ZM110.328 314.794C85.6608 314.794 62.4705 305.206 45.0288 287.794L42.9215 285.69C25.4795 268.279 15.8738 245.129 15.8738 220.505C15.8738 195.881 25.4795 172.731 42.9215 155.319L133.173 49.3397C133.245 49.2548 133.351 49.2059 133.462 49.2059H149.207C149.308 49.2059 149.405 49.2461 149.476 49.3173L180.093 79.9425C180.241 80.0903 180.241 80.3302 180.093 80.478L73.6213 186.764C54.7868 205.567 54.7868 236.159 73.6213 254.961L75.8117 257.148C84.9357 266.255 97.0663 271.272 109.969 271.272C122.872 271.272 135.003 266.255 144.127 257.148L234.791 150.768C234.863 150.683 234.969 150.635 235.08 150.635L250.148 150.601H250.149C250.248 150.601 250.344 150.64 250.415 150.71L281.696 181.368C281.768 181.439 281.81 181.536 281.81 181.637C281.81 181.738 281.77 181.836 281.698 181.907L175.627 287.794C158.185 305.206 134.995 314.794 110.328 314.794Z" fill="black"/>
<path fill-rule="evenodd" clip-rule="evenodd" d="M149.287 50.0294H133.553C133.344 50.0294 133.174 49.8454 133.174 49.6177C133.174 49.3899 133.344 49.2059 133.553 49.2059H149.287C149.497 49.2059 149.666 49.3899 149.666 49.6177C149.666 49.8454 149.497 50.0294 149.287 50.0294Z" fill="black"/>
<path fill-rule="evenodd" clip-rule="evenodd" d="M179.801 80.9118H163.855C163.647 80.9118 163.479 80.7277 163.479 80.5C163.479 80.2723 163.647 80.0882 163.855 80.0882H179.801C180.008 80.0882 180.177 80.2723 180.177 80.5C180.177 80.7277 180.008 80.9118 179.801 80.9118Z" fill="black"/>
<path fill-rule="evenodd" clip-rule="evenodd" d="M281.43 182.206H265.491C265.281 182.206 265.111 182.022 265.111 181.794C265.111 181.566 265.281 181.382 265.491 181.382H281.43C281.64 181.382 281.81 181.566 281.81 181.794C281.81 182.022 281.64 182.206 281.43 182.206Z" fill="black"/>
<path fill-rule="evenodd" clip-rule="evenodd" d="M234.968 151.272L128.523 257.578C109.514 276.562 78.6961 276.562 59.6879 257.578L57.498 255.391C38.4897 236.408 38.4897 205.629 57.498 186.646L163.943 80.3396L133.388 49.8235L27.3421 155.731C-8.56421 191.59 -8.56421 249.731 27.3421 285.59L29.4492 287.694C65.3559 323.553 123.572 323.553 159.478 287.694L265.524 181.787L234.968 151.272Z" fill="#C9FDC7"/>
<path fill-rule="evenodd" clip-rule="evenodd" d="M128.511 257.596C109.501 276.574 78.6807 276.574 59.6709 257.596L58.6488 256.576L28.449 286.724L29.4294 287.703C65.3394 323.55 123.56 323.55 159.469 287.703L265.524 181.83L234.965 151.324L128.511 257.596Z" fill="#FBF398"/>
<path fill-rule="evenodd" clip-rule="evenodd" d="M235.262 212.059L265.524 181.837L234.97 151.324L204.709 181.545L235.262 212.059Z" fill="white"/>
<path fill-rule="evenodd" clip-rule="evenodd" d="M205.214 181.545L235.263 211.555L265.019 181.837L234.97 151.827L205.214 181.545ZM235.263 212.471C235.165 212.471 235.068 212.434 234.994 212.359L204.408 181.813C204.259 181.665 204.259 181.425 204.408 181.277L234.701 151.023C234.85 150.875 235.09 150.875 235.238 151.023L265.824 181.569C265.896 181.64 265.936 181.736 265.936 181.837C265.936 181.938 265.896 182.035 265.824 182.106L235.531 212.359C235.457 212.434 235.36 212.471 235.263 212.471Z" fill="black"/>
<path fill-rule="evenodd" clip-rule="evenodd" d="M133.629 110.559L163.891 80.3375L133.337 49.8235L103.076 80.0453L133.629 110.559Z" fill="white"/>
<path fill-rule="evenodd" clip-rule="evenodd" d="M103.581 80.045L133.63 110.055L163.386 80.3375L133.337 50.3278L103.581 80.045ZM133.63 110.971C133.532 110.971 133.435 110.933 133.361 110.859L102.775 80.3132C102.703 80.2423 102.664 80.1459 102.664 80.045C102.664 79.944 102.703 79.848 102.775 79.7767L133.068 49.523C133.217 49.3747 133.457 49.3747 133.606 49.523L164.192 80.0692C164.263 80.1402 164.303 80.2366 164.303 80.3375C164.303 80.438 164.263 80.5344 164.192 80.6057L133.898 110.859C133.824 110.933 133.727 110.971 133.63 110.971Z" fill="black"/>
<path fill-rule="evenodd" clip-rule="evenodd" d="M133.388 50.3271L27.5845 155.992C-8.12518 191.655 -8.12518 249.684 27.5845 285.348L29.6922 287.452C46.9907 304.728 69.9905 314.242 94.4545 314.242C118.918 314.242 141.918 304.728 159.217 287.452L265.019 181.787L234.993 151.8L128.79 257.865C119.523 267.12 107.202 272.217 94.0957 272.217C80.9898 272.217 68.6686 267.12 59.4015 257.865L57.2111 255.677C47.9436 246.422 42.8403 234.116 42.8403 221.028C42.8403 207.939 47.9436 195.634 57.2111 186.379L163.414 80.3142L133.388 50.3271ZM94.4545 315C69.7874 315 46.5974 305.408 29.1554 287.988L27.0477 285.884C9.60611 268.464 0 245.304 0 220.67C0 196.035 9.60611 172.875 27.0477 155.456L133.12 49.5229C133.268 49.3747 133.508 49.3747 133.656 49.5229L164.219 80.0462C164.29 80.1171 164.331 80.2134 164.331 80.3142C164.331 80.4147 164.29 80.511 164.219 80.5823L57.7479 186.915C38.9134 205.725 38.9134 236.331 57.7479 255.141L59.9383 257.329C78.7732 276.139 109.419 276.138 128.253 257.329L234.725 150.996C234.873 150.848 235.113 150.848 235.262 150.996L265.825 181.519C265.896 181.59 265.936 181.686 265.936 181.787C265.936 181.888 265.896 181.984 265.825 182.055L159.754 287.988C142.312 305.408 119.121 315 94.4545 315Z" fill="black"/>
<path fill-rule="evenodd" clip-rule="evenodd" d="M309.434 137.529L288.75 145.613L291.916 152.588L268.616 162.029L301.279 156.617L298.535 147.604L309.434 137.529Z" fill="#FBF398"/>
<path fill-rule="evenodd" clip-rule="evenodd" d="M257.732 134.072L261.815 135.157C261.914 135.184 261.998 135.248 262.048 135.338C262.099 135.427 262.11 135.532 262.081 135.63L259.21 145.262L267.279 131.24L262.414 129.241C262.28 129.186 262.189 129.059 262.18 128.915L261.738 121.973L257.732 134.072ZM257.917 148.647C257.867 148.647 257.816 148.637 257.768 148.616C257.591 148.541 257.498 148.346 257.553 148.161L261.242 135.788L257.147 134.699C257.046 134.673 256.961 134.606 256.911 134.514C256.861 134.423 256.851 134.315 256.884 134.216L261.633 119.877C261.69 119.706 261.86 119.599 262.042 119.62C262.222 119.643 262.361 119.791 262.372 119.972L262.923 128.632L267.969 130.704C268.07 130.746 268.148 130.829 268.183 130.932C268.219 131.035 268.208 131.148 268.153 131.242L258.247 148.457C258.177 148.578 258.05 148.647 257.917 148.647Z" fill="black"/>
<path fill-rule="evenodd" clip-rule="evenodd" d="M307.205 72.8824L276.349 114.784L289.189 123.564L262.431 158.118L309.64 120.75L295.38 107.989L307.205 72.8824Z" fill="#C9FDC7"/>
<path fill-rule="evenodd" clip-rule="evenodd" d="M101.361 181.588L116.064 187.925L102.73 219.059L88.0269 212.722L101.361 181.588Z" fill="#DF9789"/>
<path fill-rule="evenodd" clip-rule="evenodd" d="M94.3798 197.853L109.054 204.13L102.701 218.853L88.0269 212.576L94.3798 197.853Z" fill="#020202"/>
<path fill-rule="evenodd" clip-rule="evenodd" d="M79.3684 215.635C82.9525 211.277 84.1413 208.213 88.4006 205.91L88.7726 205.709C90.1355 204.971 91.7706 206.045 91.6408 207.593L91.423 210.183C91.2115 212.7 93.6065 213.46 93.6323 213.482C95.0044 214.073 95.8436 213.498 99.3169 213.03L100.54 210.176L103.963 208.942L106.874 210.196L107.65 214.372L115.873 225.176L127.733 229.503L130.082 233.468L125.445 237.096L106.387 238.412L94.9418 230.31L79.3684 215.635Z" fill="#EBEBEB"/>
<path fill-rule="evenodd" clip-rule="evenodd" d="M95.0877 230.024L106.405 238.045L125.217 236.744L129.501 233.388L127.391 229.822L115.55 225.497L115.483 225.408L107.203 214.515L106.447 210.443L103.859 209.326L100.731 210.456L99.4873 213.36L99.2739 213.389C98.152 213.54 97.3065 213.703 96.6273 213.834C95.2035 214.108 94.4191 214.259 93.3872 213.814L93.3758 213.809C92.7296 213.555 90.744 212.573 90.949 210.129L91.1666 207.535C91.2159 206.948 90.952 206.404 90.4608 206.082C89.9714 205.761 89.3715 205.736 88.8563 206.014L88.4842 206.215C85.5198 207.821 84.0528 209.842 82.1955 212.401C81.501 213.358 80.7205 214.433 79.7872 215.588L95.0877 230.024ZM106.187 238.824L106.077 238.745L94.587 230.597L78.75 215.655L78.9759 215.38C79.9957 214.138 80.8382 212.977 81.5815 211.953C83.4958 209.316 85.0076 207.233 88.1235 205.545L88.496 205.344C89.2599 204.931 90.1502 204.968 90.8769 205.445C91.6051 205.924 91.9961 206.728 91.9232 207.599L91.7057 210.193C91.5481 212.069 93.0079 212.849 93.6431 213.096L93.708 213.124C94.5152 213.466 95.0965 213.354 96.4841 213.086C97.1288 212.962 97.9219 212.809 98.9592 212.664L100.163 209.851L103.883 208.509L107.119 209.904L107.916 214.198L116.019 224.858L127.906 229.199L130.494 233.576L125.502 237.488L125.386 237.496L106.187 238.824Z" fill="black"/>
<path fill-rule="evenodd" clip-rule="evenodd" d="M77.7656 217.547L78.7511 215.578L96.9609 229.359L110.016 236.449L120.586 236.742L130.43 233.297L130.922 236.25L129.332 238.77L124.523 240.188C124.523 240.188 125.016 240.188 119.602 240.68C119.602 240.68 118.617 240.68 115.664 241.172L109.266 239.695L105.82 238.77L96.4688 232.313C91.0547 228.867 89.5781 227.391 89.5781 227.391L82.1964 221.977L77.7656 217.547Z" fill="#020202"/>
<path fill-rule="evenodd" clip-rule="evenodd" d="M105.313 218.235C105.135 218.235 104.975 218.104 104.939 217.914C104.897 217.696 105.031 217.484 105.238 217.44L109.215 216.596C109.421 216.552 109.624 216.694 109.665 216.911C109.707 217.128 109.573 217.34 109.366 217.384L105.389 218.228C105.364 218.233 105.338 218.235 105.313 218.235Z" fill="black"/>
<path fill-rule="evenodd" clip-rule="evenodd" d="M107.375 221.118C107.197 221.118 107.037 220.986 107.001 220.796C106.959 220.578 107.093 220.367 107.3 220.323L111.276 219.479C111.484 219.433 111.685 219.576 111.727 219.793C111.768 220.011 111.635 220.223 111.428 220.266L107.451 221.11C107.426 221.115 107.4 221.118 107.375 221.118Z" fill="black"/>
<path fill-rule="evenodd" clip-rule="evenodd" d="M109.23 224.206C109.052 224.206 108.892 224.074 108.856 223.884C108.814 223.666 108.948 223.455 109.155 223.411L113.131 222.567C113.339 222.522 113.54 222.664 113.582 222.881C113.624 223.099 113.49 223.31 113.283 223.354L109.306 224.198C109.281 224.203 109.255 224.206 109.23 224.206Z" fill="black"/>
<path fill-rule="evenodd" clip-rule="evenodd" d="M128.103 105.86L31.7473 88.9412L31.8941 103.873C32.0053 115.153 39.7686 126.117 50.8744 128.09C50.8744 128.09 83.6393 132.433 110.524 137.138L92.3374 185.373L121.818 195.794C121.818 195.794 142.152 154.447 148.198 134.578C152.184 121.477 141.59 108.229 128.103 105.86Z" fill="black"/>
<path fill-rule="evenodd" clip-rule="evenodd" d="M121.862 196.206C121.82 196.206 121.777 196.199 121.735 196.184L92.2624 185.754C92.166 185.721 92.0879 185.649 92.045 185.557C92.0018 185.465 91.998 185.359 92.0336 185.263L110.055 137.419C83.58 132.799 51.5754 128.901 51.2533 128.862C51.0455 128.836 50.8972 128.648 50.9222 128.44C50.9476 128.231 51.1346 128.083 51.3448 128.109C51.6687 128.148 84.0557 132.093 110.637 136.75C110.748 136.77 110.845 136.838 110.901 136.936C110.957 137.034 110.966 137.152 110.926 137.258L92.8803 185.168L121.67 195.356C123.531 191.547 142.177 153.187 147.872 134.451C149.527 129.008 148.686 123.158 145.505 117.981C141.742 111.857 135.229 107.452 128.08 106.195L72.1055 96.2821C71.8991 96.2457 71.7614 96.0489 71.7982 95.8425C71.8347 95.637 72.0304 95.4985 72.2379 95.5353L128.212 105.448C135.571 106.741 142.277 111.278 146.151 117.583C149.448 122.949 150.317 129.018 148.598 134.672C142.614 154.358 122.406 195.58 122.202 195.993C122.137 196.127 122.003 196.206 121.862 196.206Z" fill="black"/>
<path fill-rule="evenodd" clip-rule="evenodd" d="M110.665 137.324C110.624 137.324 110.582 137.316 110.54 137.302C110.346 137.232 110.244 137.017 110.313 136.821L115.75 121.31C115.819 121.113 116.032 121.012 116.226 121.08C116.421 121.149 116.523 121.365 116.454 121.561L111.017 137.072C110.963 137.227 110.819 137.324 110.665 137.324Z" fill="black"/>
<path fill-rule="evenodd" clip-rule="evenodd" d="M38.1382 110.382L72.3594 95.5294V96.0599L40.5448 119L38.1382 110.382Z" fill="#020202"/>
<path fill-rule="evenodd" clip-rule="evenodd" d="M72.1531 95.6565L21.8521 118.588L27.0508 68.6003C27.0508 60.959 33.2353 54.7647 40.8639 54.7647H58.3396C65.9686 54.7647 72.1531 60.959 72.1531 68.6003V95.6565Z" fill="#D2F3FC"/>
<path fill-rule="evenodd" clip-rule="evenodd" d="M72.1894 75.7647C71.9815 75.7647 71.8134 75.596 71.8134 75.3872V68.6236C71.8134 67.715 71.722 66.8068 71.5423 65.9242C71.5009 65.72 71.6322 65.5203 71.8356 65.4788C72.0379 65.4354 72.2375 65.5686 72.2793 65.7729C72.4692 66.7052 72.5654 67.664 72.5654 68.6236V75.3872C72.5654 75.596 72.397 75.7647 72.1894 75.7647Z" fill="black"/>
<path fill-rule="evenodd" clip-rule="evenodd" d="M61.4403 138.971L72.6418 143.869C73.6207 144.297 74.0678 145.437 73.64 146.416L73.5329 146.662C73.1047 147.642 71.9624 148.089 70.982 147.661L59.7839 142.764L61.4403 138.971Z" fill="#DF9789"/>
<path fill-rule="evenodd" clip-rule="evenodd" d="M65.3638 128.265H47.8913L47.6878 134.366C46.4132 138.841 49.7664 143.294 54.4101 143.294H65.7626L65.3638 128.265Z" fill="#DF9789"/>
<path fill-rule="evenodd" clip-rule="evenodd" d="M76.0035 137.999L78.6815 139.543C79.2348 139.862 79.5747 140.445 79.5747 141.076V141.309C79.5747 142.682 78.0579 143.536 76.8527 142.841L76.0035 142.352C75.0032 141.775 73.865 141.471 72.7057 141.471H63.4949V137.118H72.7053C73.865 137.118 75.0032 137.422 76.0035 137.999Z" fill="#DF9789"/>
<path fill-rule="evenodd" clip-rule="evenodd" d="M77.899 133.675L80.5472 135.219C81.0938 135.538 81.4299 136.121 81.4299 136.752V136.985C81.4299 138.358 79.9302 139.213 78.7386 138.518L77.899 138.028C76.9103 137.452 75.7846 137.148 74.6384 137.148H64.3193V132.794H74.638C75.7846 132.794 76.9103 133.098 77.899 133.675Z" fill="#DF9789"/>
<path fill-rule="evenodd" clip-rule="evenodd" d="M77.899 129.146L80.5472 130.69C81.0938 131.009 81.4299 131.592 81.4299 132.223V132.456C81.4299 133.829 79.9302 134.683 78.7386 133.988L77.899 133.499C76.9103 132.922 75.7846 132.618 74.6384 132.618H64.3193V128.265H74.638C75.7846 128.265 76.9103 128.569 77.899 129.146Z" fill="#DF9789"/>
<path fill-rule="evenodd" clip-rule="evenodd" d="M44.0697 117.353L57.4052 129.091L58.1348 143.294H55.4931C50.4849 143.294 46.0392 140.094 44.46 135.353L33.1904 126.383L44.0697 117.353Z" fill="#DF9789"/>
<path fill-rule="evenodd" clip-rule="evenodd" d="M46.1779 119.274L39.6297 131.971L33.3965 126.608L44.2398 117.559L46.1779 119.274Z" fill="black"/>
<path fill-rule="evenodd" clip-rule="evenodd" d="M77.822 143.706C77.4455 143.706 77.069 143.605 76.727 143.403L75.8874 142.908C74.9581 142.36 73.8972 142.071 72.82 142.071H67.3151C67.1062 142.071 66.9367 141.901 66.9367 141.691C66.9367 141.481 67.1062 141.311 67.3151 141.311H72.82C74.0319 141.311 75.2252 141.637 76.2707 142.253L77.1103 142.748C77.55 143.008 78.0778 143.011 78.5208 142.756C78.965 142.501 79.2303 142.041 79.2303 141.527V141.291C79.2303 140.791 78.9639 140.322 78.5345 140.07L75.8878 138.509C74.9581 137.961 73.8972 137.671 72.8196 137.671H65.9348C65.7259 137.671 65.5564 137.502 65.5564 137.292C65.5564 137.082 65.7259 136.912 65.9348 136.912H72.8196C74.0319 136.912 75.2252 137.237 76.2707 137.854L78.9178 139.415C79.5772 139.803 79.987 140.523 79.987 141.291V141.527C79.987 142.317 79.5795 143.023 78.8969 143.415C78.5598 143.609 78.1909 143.706 77.822 143.706Z" fill="black"/>
<path fill-rule="evenodd" clip-rule="evenodd" d="M79.8621 139.176C79.482 139.176 79.1022 139.075 78.7565 138.874L77.9092 138.379C76.9706 137.831 75.8998 137.541 74.8118 137.541H66.5755C66.3643 137.541 66.1935 137.371 66.1935 137.161C66.1935 136.952 66.3643 136.782 66.5755 136.782H74.8118C76.0354 136.782 77.2403 137.107 78.2958 137.724L79.1435 138.219C79.5882 138.478 80.1203 138.48 80.568 138.226C81.0165 137.971 81.2843 137.512 81.2843 136.997V136.762C81.2843 136.262 81.015 135.794 80.5818 135.541L77.9092 133.98C76.971 133.432 75.8998 133.142 74.8114 133.142H66.3505C66.1397 133.142 65.9685 132.972 65.9685 132.762C65.9685 132.553 66.1397 132.382 66.3505 132.382H74.8114C76.0358 132.382 77.2411 132.709 78.2962 133.325L80.9684 134.885C81.6346 135.274 82.0483 135.993 82.0483 136.762V136.997C82.0483 137.787 81.6365 138.493 80.9478 138.886C80.607 139.079 80.2345 139.176 79.8621 139.176Z" fill="black"/>
<path fill-rule="evenodd" clip-rule="evenodd" d="M71.849 148.235C71.5233 148.235 71.198 148.168 70.8905 148.034L60.9278 143.687H55.3821C55.3813 143.687 55.3809 143.687 55.3802 143.687C50.4283 143.683 45.8619 140.381 44.2328 135.641L33.1266 126.795C33.0377 126.725 32.9855 126.617 32.9844 126.505C32.9833 126.391 33.0332 126.283 33.1206 126.21L43.9257 117.234C44.069 117.116 44.2778 117.119 44.4174 117.24L56.7324 128.019H74.6771C75.8886 128.019 77.0819 128.343 78.1273 128.955L80.7731 130.505C81.4327 130.891 81.8424 131.605 81.8424 132.368V132.602C81.8424 133.387 81.4346 134.088 80.7523 134.477C80.0707 134.866 79.2598 134.862 78.5831 134.465L77.7442 133.974C76.8149 133.43 75.7547 133.142 74.6774 133.142H65.4186C65.2098 133.142 65.0403 132.973 65.0403 132.765C65.0403 132.557 65.2098 132.388 65.4186 132.388H74.6774C75.8889 132.388 77.0819 132.711 78.127 133.323L78.9663 133.815C79.4062 134.073 79.9334 134.075 80.3763 133.823C80.8204 133.569 81.0859 133.113 81.0859 132.602V132.368C81.0859 131.871 80.8192 131.406 80.3903 131.155L77.7442 129.605C76.8149 129.061 75.7543 128.773 74.6771 128.773H56.5902C56.4983 128.773 56.4097 128.74 56.3405 128.68L44.1613 118.02L33.961 126.494L44.7918 135.121C44.8489 135.167 44.8917 135.228 44.9148 135.297C46.4111 139.793 50.7184 142.932 55.3896 142.932H61.0068C61.059 142.932 61.1105 142.943 61.1581 142.964L71.1939 147.343C71.5941 147.518 72.0389 147.527 72.4458 147.367C72.8536 147.208 73.1747 146.9 73.3498 146.499L73.3918 146.403C73.7534 145.576 73.3744 144.61 72.5468 144.249L62.6416 139.927C62.4506 139.844 62.3632 139.621 62.4468 139.43C62.5304 139.239 62.7535 139.152 62.9449 139.236L72.8502 143.558C74.0594 144.086 74.6135 145.497 74.0851 146.705L74.0431 146.801C73.7871 147.387 73.3177 147.837 72.7216 148.07C72.439 148.18 72.1436 148.235 71.849 148.235Z" fill="black"/>
<path fill-rule="evenodd" clip-rule="evenodd" d="M4.10989 103.072C-0.0474463 99.2 -0.291996 92.6759 3.56447 88.5007L31.1097 58.6765L45.5597 72.136L18.6203 102.524C14.7642 106.7 8.2676 106.945 4.10989 103.072Z" fill="#D2F3FC"/>
<path fill-rule="evenodd" clip-rule="evenodd" d="M3.16522 88.5343C7.04432 84.3595 13.5837 84.114 17.7665 87.9861L47.6211 115.625L33.5804 130.735L3.714 103.086C-0.46419 99.2175 -0.709697 92.7042 3.16522 88.5343Z" fill="#D2F3FC"/>
<path fill-rule="evenodd" clip-rule="evenodd" d="M33.5906 131.353C33.4947 131.353 33.4022 131.317 33.3314 131.251L3.42493 103.539C-0.908866 99.5238 -1.16427 92.7346 2.85552 88.4053C2.97656 88.277 3.40704 87.7988 4.08532 87.0468C21.2968 67.9545 31.5714 57.4897 34.624 55.9431C37.7771 54.3457 40.8473 54.3438 43.5535 54.3545H44.2428H44.2439C44.4537 54.3545 44.6238 54.5242 44.6246 54.7335C44.625 54.9431 44.4552 55.1137 44.2451 55.114H43.5527C40.9295 55.1095 37.9587 55.1061 34.9689 56.6203C32.9276 57.6545 26.0112 63.8607 4.65093 87.555C3.96694 88.3138 3.53189 88.7958 3.41199 88.9234C-0.321181 92.9443 -0.0836702 99.2519 3.94335 102.983L33.5701 130.436L47.1154 115.846L17.4875 88.3924C17.3334 88.25 17.3246 88.0096 17.4673 87.8554C17.6108 87.702 17.8514 87.6936 18.0055 87.836L47.912 115.548C48.0658 115.69 48.0746 115.93 47.9318 116.084L33.8696 131.231C33.8011 131.305 33.7056 131.349 33.6047 131.353C33.6001 131.353 33.5952 131.353 33.5906 131.353Z" fill="black"/>
<path fill-rule="evenodd" clip-rule="evenodd" d="M24.9135 95.1176C24.8211 95.1176 24.7287 95.085 24.6551 95.0185C24.5 94.878 24.4901 94.6402 24.6329 94.4877L39.3305 78.7688C39.4733 78.6156 39.7146 78.6058 39.87 78.7463C40.0253 78.8868 40.0353 79.1245 39.8925 79.277L25.1945 94.9963C25.1193 95.0771 25.0166 95.1176 24.9135 95.1176Z" fill="black"/>
<path fill-rule="evenodd" clip-rule="evenodd" d="M78.2917 92.0094L75.8638 89.5914L108.616 61.7647L118.331 72.9011L99.3925 91.9489C93.5779 97.7972 84.1306 97.8244 78.2917 92.0094Z" fill="#DF9789"/>
<path fill-rule="evenodd" clip-rule="evenodd" d="M113.916 58.6765L128.651 43.0696C129.491 42.1795 129.454 40.7754 128.567 39.9322C127.679 39.0884 126.277 39.1267 125.436 40.0176L110.704 55.6222L113.916 58.6765Z" fill="#DF9789"/>
<path fill-rule="evenodd" clip-rule="evenodd" d="M117.838 61.8981C118.533 62.5655 119.634 62.54 120.298 61.8403L124.069 57.84L125.714 59.4199L126.628 58.4568C128.089 56.918 127.79 55.0147 127.787 55.041C127.623 53.0509 125.203 51.5776 123.679 53.1826L117.783 59.4229C117.119 60.1223 117.143 61.2307 117.838 61.8981Z" fill="#DF9789"/>
<path fill-rule="evenodd" clip-rule="evenodd" d="M122.385 62.3038C123.094 62.9798 124.218 62.9536 124.896 62.2452L126.671 60.3788L128.35 61.9793L129.284 61.0035C130.775 59.4451 130.469 57.5178 130.466 57.544C130.299 55.5288 127.828 54.0363 126.273 55.6618L122.328 59.7965C121.65 60.5052 121.675 61.6275 122.385 62.3038Z" fill="#DF9789"/>
<path fill-rule="evenodd" clip-rule="evenodd" d="M108.296 58.379C108.4 61.0435 108.725 63.694 109.266 66.3048L110.137 70.5076L117.331 73.7059L129.463 60.9174L119.147 51.1558L112.946 57.6908L112.673 50.5126C112.617 49.0345 111.984 47.6373 110.909 46.6205L109.019 44.8323C108.187 44.0454 106.874 44.0809 106.085 44.9126L105.913 45.0935C105.124 45.9248 105.159 47.2368 105.991 48.0242L106.289 48.3058C107.362 49.3214 107.995 50.7159 108.053 52.1918L108.296 58.379Z" fill="#DF9789"/>
<path fill-rule="evenodd" clip-rule="evenodd" d="M114.13 60.8698C114.828 61.5359 115.934 61.5101 116.601 60.812L121.578 55.565L123.231 57.1422L124.149 56.1806C125.617 54.6447 125.316 52.7454 125.313 52.7713C125.148 50.785 122.717 49.3145 121.187 50.9168L114.074 58.3989C113.407 59.0973 113.432 60.2032 114.13 60.8698Z" fill="#DF9789"/>
<path fill-rule="evenodd" clip-rule="evenodd" d="M115.524 61.9706C114.991 61.9706 114.46 61.7732 114.046 61.3795C113.191 60.5654 113.159 59.2092 113.977 58.3562L121.153 50.8341C121.854 50.1017 122.804 49.8543 123.758 50.1536C124.893 50.5103 125.775 51.5466 125.955 52.7318C125.986 52.9406 125.841 53.135 125.631 53.1663C125.421 53.1957 125.226 53.054 125.194 52.8452C125.06 51.9555 124.374 51.1483 123.526 50.8818C123.136 50.7596 122.382 50.6588 121.71 51.3598L114.535 58.8819C114.008 59.4314 114.027 60.3039 114.578 60.8274C115.11 61.3345 115.946 61.3345 116.48 60.8289L117.733 59.5104C117.879 59.3573 118.123 59.3505 118.276 59.4952C118.431 59.6399 118.438 59.8816 118.292 60.0347L117.025 61.3673C116.601 61.7701 116.061 61.9706 115.524 61.9706Z" fill="black"/>
<path fill-rule="evenodd" clip-rule="evenodd" d="M119.231 62.7941C118.679 62.7941 118.156 62.5891 117.755 62.2122C116.902 61.4122 116.871 60.0788 117.686 59.2405L123.642 53.0839C124.342 52.3646 125.289 52.1224 126.24 52.416C127.372 52.7674 128.251 53.7877 128.428 54.9549C128.459 55.1599 128.315 55.3506 128.106 55.381C127.898 55.4076 127.702 55.2702 127.671 55.0649C127.538 54.1894 126.854 53.3943 126.009 53.1319C125.62 53.011 124.867 52.9115 124.197 53.6012L118.242 59.7578C117.716 60.2977 117.736 61.1551 118.284 61.6698C118.55 61.9187 118.903 62.0572 119.264 62.0429C119.631 62.035 119.973 61.8868 120.227 61.6255L122.033 59.7544C122.179 59.6035 122.421 59.5975 122.575 59.7398C122.728 59.8825 122.735 60.1197 122.59 60.2706L120.783 62.1424C120.387 62.5501 119.854 62.781 119.282 62.7937C119.265 62.7941 119.248 62.7941 119.231 62.7941Z" fill="black"/>
<path fill-rule="evenodd" clip-rule="evenodd" d="M124.522 66.7059C124.429 66.7059 124.335 66.6714 124.262 66.6012C124.111 66.4554 124.105 66.2126 124.248 66.0588C124.427 65.8666 124.65 65.636 124.903 65.374C126.584 63.6375 130.081 60.0241 129.942 57.5668C129.907 56.9465 129.643 56.4429 129.136 56.0274C127.806 54.938 126.836 55.8072 125.509 57.2591C125.408 57.37 125.308 57.4793 125.209 57.5844C125.01 57.7973 124.749 58.0405 124.473 58.2979C123.583 59.1272 122.364 60.2631 122.384 61.1925C122.397 61.7368 122.643 62.1476 123.079 62.349C123.603 62.5907 124.277 62.4818 124.754 62.0774C125.121 61.7667 125.465 61.3682 125.798 60.9831C125.972 60.7809 126.145 60.5807 126.321 60.3919C126.464 60.2377 126.703 60.232 126.854 60.3774C127.005 60.5227 127.012 60.7659 126.868 60.9194C126.699 61.1012 126.533 61.2945 126.365 61.489C126.013 61.8964 125.649 62.318 125.238 62.6666C124.543 63.2555 123.55 63.4101 122.767 63.0472C122.063 62.7223 121.649 62.0525 121.63 61.2098C121.602 59.932 122.911 58.7126 123.963 57.7325C124.23 57.4839 124.481 57.2496 124.662 57.0562C124.759 56.9527 124.857 56.8452 124.956 56.7371C126.085 55.5019 127.633 53.811 129.61 55.4302C130.282 55.9814 130.648 56.6853 130.695 57.5231C130.853 60.3198 127.333 63.9574 125.441 65.9122C125.192 66.1704 124.972 66.3971 124.796 66.5862C124.721 66.666 124.622 66.7059 124.522 66.7059Z" fill="black"/>
<path fill-rule="evenodd" clip-rule="evenodd" d="M108.787 62.1765C108.599 62.1765 108.436 62.0348 108.412 61.8411C108.027 58.6968 107.929 55.9148 108.112 53.338C108.019 51.9222 107.333 50.6439 106.607 49.2908C106.243 48.6129 105.867 47.9116 105.575 47.1944C105.181 46.3118 105.294 45.3845 105.881 44.7249C106.557 43.9649 107.699 43.7307 108.864 44.113C108.885 44.1203 108.906 44.1291 108.926 44.1398C111.75 45.6713 113.209 48.4887 113.373 52.738C113.591 52.5104 113.843 52.2484 114.124 51.9574C116.717 49.2633 121.545 44.2482 124.629 40.4588C124.644 40.4401 124.662 40.4225 124.68 40.4069C124.764 40.337 124.852 40.2594 124.945 40.1777C125.602 39.601 126.501 38.8093 127.668 38.9227C127.701 38.9258 127.735 38.9338 127.766 38.9456C128.63 39.276 129.666 39.9696 129.986 40.9263C130.165 41.461 130.092 42.0136 129.776 42.5246C128.368 44.8005 126.536 46.5719 124.766 48.2848C123.725 49.2908 122.65 50.3304 121.699 51.4429C121.563 51.6029 121.324 51.6197 121.166 51.4826C121.007 51.3448 120.989 51.1038 121.126 50.9437C122.1 49.8045 123.188 48.7519 124.241 47.7337C125.979 46.0528 127.775 44.3151 129.133 42.1202C129.331 41.8005 129.375 41.49 129.269 41.1707C129.053 40.5253 128.257 39.9623 127.547 39.6793C126.729 39.6209 126.015 40.2507 125.443 40.7537C125.355 40.8308 125.271 40.9045 125.192 40.9717C122.087 44.7818 117.262 49.7938 114.667 52.4894C114.049 53.1314 113.569 53.6306 113.285 53.9338C113.178 54.048 113.013 54.0847 112.869 54.0262C112.724 53.9678 112.63 53.8265 112.631 53.6699C112.653 49.1586 111.371 46.3488 108.598 44.8291C107.734 44.5565 106.911 44.7108 106.445 45.2351C106.058 45.6694 105.994 46.2732 106.27 46.8923C106.552 47.584 106.919 48.2668 107.273 48.9272C108.011 50.3013 108.773 51.7225 108.87 53.3166C108.87 53.3334 108.87 53.3506 108.869 53.3674C108.687 55.9007 108.784 58.6422 109.163 61.7479C109.189 61.9572 109.041 62.1478 108.834 62.1734C108.818 62.1757 108.802 62.1765 108.787 62.1765Z" fill="black"/>
<path fill-rule="evenodd" clip-rule="evenodd" d="M87.8485 77.7111L100.982 65.6397L113.59 78.0076L97.8481 94.4254C93.7057 98.7452 87.141 99.663 81.9753 96.6439L41.8489 73.1944L57.2493 58.8779C59.9395 56.3764 63.0203 54.4539 65.6827 56.9823C72.7915 63.7335 87.8485 77.7111 87.8485 77.7111Z" fill="#D2F3FC"/>
<path fill-rule="evenodd" clip-rule="evenodd" d="M46.3842 47.1471H44.5926C43.3498 47.1471 42.3141 46.2012 42.209 44.9703L41.8597 40.8845C41.7126 39.1585 43.0817 37.6765 44.8243 37.6765H46.3842V47.1471Z" fill="black"/>
<path fill-rule="evenodd" clip-rule="evenodd" d="M44.5288 54.8804L52.1564 62.1765V45.2941H44.5288V54.8804Z" fill="#DF9789"/>
<path fill-rule="evenodd" clip-rule="evenodd" d="M44.5288 48.2142V45.2941H52.1564V51.7395C51.468 51.8779 50.0958 52.052 48.5204 51.5278C46.0541 50.7074 44.8436 48.7601 44.5288 48.2142Z" fill="black"/>
<path fill-rule="evenodd" clip-rule="evenodd" d="M43.292 43.0294C43.292 46.7819 46.0607 49.8235 49.4764 49.8235C52.8924 49.8235 55.6611 46.7819 55.6611 43.0294C55.6611 39.2773 52.8924 36.2353 49.4764 36.2353C46.0607 36.2353 43.292 39.2773 43.292 43.0294Z" fill="#DF9789"/>
<path fill-rule="evenodd" clip-rule="evenodd" d="M46.7964 46.1294C47.3935 46.6726 48.1621 47.0393 49.0299 47.127C50.9642 47.322 52.7073 46.0748 53.1871 44.2647L46.7964 46.1294Z" fill="white"/>
<path fill-rule="evenodd" clip-rule="evenodd" d="M59.3717 35.3088C59.3717 33.0914 57.5832 31.2941 55.3776 31.2941C53.7236 31.2941 52.3047 32.3044 51.6975 33.7436H49.6679C46.6019 33.7436 44.1165 36.2416 44.1165 39.3235H55.5593V39.314C57.6805 39.2178 59.3717 37.4641 59.3717 35.3088Z" fill="black"/>
<path fill-rule="evenodd" clip-rule="evenodd" d="M50.8245 61.7487C50.8245 61.7487 58.0785 75.5321 55.3541 82.0121C52.6294 88.4917 43.2 84.6943 43.2 84.6943L36.0767 88.5418L42.3397 94.8406C42.3397 94.8406 63.5222 96.3485 63.8915 85.4794C64.2609 74.6107 58.0171 68.8478 52.1344 61.3529L50.8245 61.7487Z" fill="black"/>
<path fill-rule="evenodd" clip-rule="evenodd" d="M46.7964 57.0294H52.1563V63.2059L46.7964 57.0294Z" fill="#020202"/>
<path fill-rule="evenodd" clip-rule="evenodd" d="M170.9 109.784L193.065 99.5904L200.911 80.5L207.071 93.1076L217.173 88.3587L235.219 127.221L188.946 148.647L170.9 109.784Z" fill="#020202"/>
<path fill-rule="evenodd" clip-rule="evenodd" d="M169.457 113.286L192.309 102.778L200.011 84.2059L205.628 96.6109L215.73 91.8623L233.776 130.723L187.503 152.147L169.457 113.286Z" fill="white"/>
<path fill-rule="evenodd" clip-rule="evenodd" d="M169.927 113.467L187.615 151.675L233.1 130.55L215.413 92.3432L205.677 96.9334C205.586 96.9771 205.481 96.982 205.385 96.9463C205.29 96.9114 205.213 96.8393 205.171 96.7466L199.927 85.129L192.576 102.908C192.54 102.996 192.471 103.068 192.385 103.108L169.927 113.467ZM187.431 152.559C187.288 152.559 187.151 152.477 187.087 152.339L169.08 113.442C169.037 113.35 169.033 113.245 169.068 113.15C169.102 113.056 169.173 112.979 169.265 112.937L191.933 102.48L199.561 84.0284C199.619 83.8887 199.754 83.7968 199.905 83.7941C200.05 83.8017 200.195 83.8792 200.257 84.0174L205.703 96.0826L215.435 91.4939C215.526 91.451 215.631 91.446 215.725 91.4802C215.82 91.5151 215.898 91.5857 215.94 91.6776L233.947 130.575C234.035 130.765 233.952 130.991 233.763 131.079L187.59 152.524C187.539 152.548 187.484 152.559 187.431 152.559Z" fill="black"/>
<path d="M212.452 114.275C212.423 115.394 212.147 116.62 211.674 118.195L206.71 133.163L192.047 127.343C190.536 126.693 189.418 126.116 188.542 125.419C187.676 124.731 187.03 123.911 186.489 122.752C184.852 119.244 186.374 115.069 189.891 113.43C192.503 112.213 195.479 112.738 197.51 114.529L198.369 115.286L198.341 114.141C198.274 111.436 199.784 108.819 202.396 107.602C205.913 105.962 210.091 107.48 211.728 110.989L211.728 110.989C212.269 112.148 212.481 113.17 212.452 114.275Z" stroke="black"/>
<path fill-rule="evenodd" clip-rule="evenodd" d="M302.195 55.0375L244.534 48.361L229.859 58.6765L236.61 0.205879L307.579 8.42317L302.195 55.0375Z" fill="white"/>
<path fill-rule="evenodd" clip-rule="evenodd" d="M236.916 0.799495L230.301 57.9135L244.296 48.1084C244.372 48.0546 244.466 48.0303 244.558 48.0421L301.894 54.6586L307.191 8.90985L236.916 0.799495ZM229.827 59.0882C229.759 59.0882 229.692 59.0704 229.632 59.0348C229.504 58.9586 229.432 58.8138 229.45 58.6656L236.206 0.335905C236.229 0.128181 236.419 -0.0238224 236.626 0.00309085L307.654 8.20025C307.757 8.21163 307.848 8.26242 307.909 8.34126C307.973 8.42011 308 8.52056 307.988 8.62025L302.604 55.1225C302.577 55.3306 302.391 55.483 302.182 55.4553L244.614 48.8119L230.045 59.0192C229.98 59.0651 229.903 59.0882 229.827 59.0882Z" fill="black"/>
<path fill-rule="evenodd" clip-rule="evenodd" d="M285.536 33.8319C287.05 34.0067 288.42 32.9219 288.594 31.4093C288.768 29.8964 287.684 28.5279 286.17 28.3528L284.223 28.1281C285.737 28.3029 287.106 27.2185 287.282 25.7055C287.456 24.1926 286.371 22.8245 284.857 22.6494L276.598 21.6955L268.546 21.8022C270.006 18.6821 270.844 15.7311 271.239 12.3194L271.269 12.0535C271.439 10.5852 270.35 9.25267 268.836 9.07792C267.321 8.9028 265.956 9.95164 265.786 11.4203L264.342 15.3831L259.144 21.927L256.865 41.6236L274.063 43.6105L281.348 44.452C282.862 44.6272 284.231 43.542 284.406 42.0295C284.581 40.5165 283.496 39.148 281.982 38.9733L284.902 39.3103C286.416 39.4854 287.784 38.401 287.962 36.8881C288.136 35.3751 287.05 34.0067 285.536 33.8319Z" fill="#212121"/>
<path fill-rule="evenodd" clip-rule="evenodd" d="M247.588 40.4324L254.141 41.1765L256.453 21.5385L249.9 20.7941L247.588 40.4324Z" fill="#212121"/>
<path fill-rule="evenodd" clip-rule="evenodd" d="M301.591 220.088L315 231.381L295.598 255.912L292.323 253.025L301.591 220.088Z" fill="#020202"/>
<path fill-rule="evenodd" clip-rule="evenodd" d="M294.523 254.471L263.05 228.154L282.742 205.059L314.175 231.398L294.523 254.471Z" fill="#DDDFFE"/>
<path fill-rule="evenodd" clip-rule="evenodd" d="M302.664 232.853C302.645 232.853 302.626 232.852 302.607 232.849L287.008 230.615C286.858 230.594 286.736 230.486 286.696 230.34L282.442 215.014C282.386 214.811 282.504 214.6 282.706 214.544C282.908 214.486 283.117 214.606 283.174 214.809L287.361 229.895L302.717 232.094C302.922 232.124 303.067 232.317 303.04 232.526C303.01 232.716 302.85 232.853 302.664 232.853Z" fill="black"/>
<path fill-rule="evenodd" clip-rule="evenodd" d="M298.559 233.51L286.963 230.505L287.15 229.971L303.456 232.219C302.17 233.473 300.308 233.964 298.559 233.51Z" fill="#020202"/>
<path fill-rule="evenodd" clip-rule="evenodd" d="M263.555 228.107L294.461 253.97L313.67 231.422L282.765 205.559L263.555 228.107ZM294.507 254.882C294.419 254.882 294.332 254.853 294.259 254.794L262.773 228.442C262.696 228.377 262.648 228.285 262.639 228.184C262.63 228.083 262.662 227.983 262.728 227.907L282.43 204.78C282.565 204.622 282.804 204.602 282.964 204.735L314.453 231.087C314.53 231.152 314.579 231.245 314.587 231.345C314.594 231.446 314.564 231.546 314.495 231.623L294.796 254.749C294.72 254.837 294.613 254.882 294.507 254.882Z" fill="black"/>
<path fill-rule="evenodd" clip-rule="evenodd" d="M191.591 58.0588L152.14 40.2228L170 0.823532L209.45 18.6596L191.591 58.0588Z" fill="#FBF398"/>
<path fill-rule="evenodd" clip-rule="evenodd" d="M191.836 34.4134C188.973 40.7306 181.523 43.5332 175.198 40.6737C168.873 37.8138 166.066 30.3742 168.93 24.057C171.793 17.7398 179.242 14.9372 185.568 17.7971C191.893 20.6567 194.7 28.0962 191.836 34.4134Z" fill="white"/>
<path fill-rule="evenodd" clip-rule="evenodd" d="M184.712 31.2286L179.521 23.8824L175.847 32.1176L184.712 31.2286Z" fill="white"/>
<path fill-rule="evenodd" clip-rule="evenodd" d="M179.589 24.7912L176.423 31.7224L184.063 30.9739L179.589 24.7912ZM175.811 32.5294C175.691 32.5294 175.577 32.4716 175.506 32.374C175.427 32.2655 175.413 32.1242 175.469 32.0031L179.172 23.8958C179.228 23.7739 179.344 23.6915 179.478 23.6784C179.611 23.6646 179.742 23.7239 179.821 23.832L185.054 31.0641C185.132 31.1725 185.146 31.3138 185.091 31.435C185.036 31.5565 184.919 31.6392 184.785 31.6523L175.848 32.5275C175.836 32.5287 175.824 32.5294 175.811 32.5294Z" fill="black"/>
<path fill-rule="evenodd" clip-rule="evenodd" d="M252.878 311.912L226.611 293.083C218.313 284.307 221.182 269.934 232.209 265.041C243.236 260.147 255.768 267.686 256.659 279.749L252.878 311.912Z" fill="#C9FDC7"/>
<path fill-rule="evenodd" clip-rule="evenodd" d="M248.946 276.844C251.317 282.198 248.894 288.458 243.533 290.826C238.172 293.195 231.904 290.775 229.532 285.421C227.161 280.067 229.584 273.806 234.945 271.438C240.306 269.07 246.575 271.49 248.946 276.844Z" fill="white"/>
<path fill-rule="evenodd" clip-rule="evenodd" d="M165.334 175.235L153.474 160.149C153.171 159.764 153.64 159.251 154.048 159.522L167.228 168.32C167.484 168.49 167.829 168.345 167.887 168.042L169.639 158.879C169.722 158.446 170.322 158.403 170.466 158.82L174.719 171.217C174.813 171.491 175.143 171.596 175.376 171.426L181.403 167.029C181.751 166.775 182.213 167.137 182.054 167.539L179.511 173.931C179.411 174.183 179.565 174.465 179.831 174.515L186.423 175.756C186.836 175.834 186.903 176.4 186.521 176.574L178.365 180.279C178.127 180.387 178.039 180.682 178.18 180.904L184.809 191.383C185.064 191.786 184.574 192.246 184.191 191.961L174.239 184.551C174.005 184.376 173.67 184.482 173.577 184.76L171.165 191.994C171.023 192.418 170.412 192.372 170.335 191.931L169.063 184.66C169.004 184.323 168.598 184.186 168.349 184.418L155.819 196.086C155.443 196.436 154.884 195.948 155.175 195.524L164.643 181.732C164.822 181.471 164.669 181.111 164.358 181.061L156.603 179.803C156.165 179.732 156.11 179.119 156.529 178.97L165.141 175.91C165.418 175.811 165.517 175.468 165.334 175.235Z" fill="#EFEFEF"/>
</svg>
