<svg width="11" height="9" viewBox="0 0 11 9" fill="none" xmlns="http://www.w3.org/2000/svg">
<path fill-rule="evenodd" clip-rule="evenodd" d="M0.29082 4.2361C0.924418 2.22584 3.01618 0.75 5.50001 0.75C7.98381 0.75 10.0755 2.2258 10.7092 4.23598C10.7636 4.40866 10.7636 4.59122 10.7092 4.7639C10.0756 6.77416 7.98383 8.25 5.49999 8.25C3.01621 8.25 0.92447 6.7742 0.290827 4.76402C0.236393 4.59134 0.236391 4.40878 0.29082 4.2361ZM5.49989 6.72973C6.89739 6.72973 8.0303 5.73144 8.0303 4.5C8.0303 3.26856 6.89739 2.27027 5.49989 2.27027C4.1024 2.27027 2.96949 3.26856 2.96949 4.5C2.96949 5.73144 4.1024 6.72973 5.49989 6.72973Z" fill="white"/>
<path fill-rule="evenodd" clip-rule="evenodd" d="M5.5 3.75C5.08579 3.75 4.75 4.08579 4.75 4.5C4.75 4.91421 5.08579 5.25 5.5 5.25C5.91421 5.25 6.25 4.91421 6.25 4.5C6.25 4.08579 5.91421 3.75 5.5 3.75Z" fill="white"/>
</svg>
