<svg width="22" height="22" viewBox="0 0 22 22" fill="none" xmlns="http://www.w3.org/2000/svg">
<path d="M12.5714 21.2147H2.35707C1.9403 21.2147 1.54061 21.0491 1.2459 20.7544C0.951205 20.4598 0.785645 20.06 0.785645 19.6433V2.35756C0.785645 1.94079 0.951205 1.54109 1.2459 1.24639C1.54061 0.951694 1.9403 0.786133 2.35707 0.786133H14.1428" stroke="black" stroke-width="1.5" stroke-linecap="round" stroke-linejoin="round"/>
<path d="M16.5 5.50042L18.8571 0.786133L21.2143 5.50042V18.8576C21.2143 19.4827 20.966 20.0823 20.524 20.5244C20.0819 20.9664 19.4823 21.2147 18.8571 21.2147C18.232 21.2147 17.6324 20.9664 17.1903 20.5244C16.7483 20.0823 16.5 19.4827 16.5 18.8576V5.50042Z" stroke="black" stroke-width="1.5" stroke-linecap="round" stroke-linejoin="round"/>
<path d="M16.5 14.9287H21.2143" stroke="black" stroke-width="1.5" stroke-linecap="round" stroke-linejoin="round"/>
<path d="M5.5 0.786133V21.2147" stroke="black" stroke-width="1.5" stroke-linecap="round" stroke-linejoin="round"/>
<path d="M9.42847 6.28613H12.5713" stroke="black" stroke-width="1.5" stroke-linecap="round" stroke-linejoin="round"/>
</svg>
