<svg width="40" height="40" viewBox="0 0 40 40" fill="none" xmlns="http://www.w3.org/2000/svg">
<circle cx="20" cy="20" r="20" fill="#212121" fill-opacity="0.1"/>
<path d="M25.625 18.125H25.0625V16.0625C25.0625 14.7198 24.5291 13.4322 23.5797 12.4828C22.6303 11.5334 21.3427 11 20 11C18.6573 11 17.3697 11.5334 16.4203 12.4828C15.4709 13.4322 14.9375 14.7198 14.9375 16.0625V18.125H14.375C13.9772 18.125 13.5956 18.283 13.3143 18.5643C13.033 18.8456 12.875 19.2272 12.875 19.625V27.5C12.875 27.8978 13.033 28.2794 13.3143 28.5607C13.5956 28.842 13.9772 29 14.375 29H25.625C26.0228 29 26.4044 28.842 26.6857 28.5607C26.967 28.2794 27.125 27.8978 27.125 27.5V19.625C27.125 19.2272 26.967 18.8456 26.6857 18.5643C26.4044 18.283 26.0228 18.125 25.625 18.125ZM20 24.875C19.7033 24.875 19.4133 24.787 19.1666 24.6222C18.92 24.4574 18.7277 24.2231 18.6142 23.949C18.5006 23.6749 18.4709 23.3733 18.5288 23.0824C18.5867 22.7914 18.7296 22.5241 18.9393 22.3143C19.1491 22.1046 19.4164 21.9617 19.7074 21.9038C19.9983 21.8459 20.2999 21.8756 20.574 21.9892C20.8481 22.1027 21.0824 22.295 21.2472 22.5416C21.412 22.7883 21.5 23.0783 21.5 23.375C21.5 23.7728 21.342 24.1544 21.0607 24.4357C20.7794 24.717 20.3978 24.875 20 24.875ZM23.1875 17.75C23.1875 17.8495 23.148 17.9448 23.0777 18.0152C23.0073 18.0855 22.912 18.125 22.8125 18.125H17.1875C17.088 18.125 16.9927 18.0855 16.9223 18.0152C16.852 17.9448 16.8125 17.8495 16.8125 17.75V16.0625C16.8125 15.2171 17.1483 14.4064 17.7461 13.8086C18.3439 13.2108 19.1546 12.875 20 12.875C20.8454 12.875 21.6561 13.2108 22.2539 13.8086C22.8517 14.4064 23.1875 15.2171 23.1875 16.0625V17.75Z" fill="#212121"/>
</svg>
