<svg width="50" height="50" viewBox="0 0 50 50" fill="none" xmlns="http://www.w3.org/2000/svg">
<rect width="50" height="50" rx="25" fill="white" fill-opacity="0.5"/>
<g clip-path="url(#clip0_324_4932)">
<path fill-rule="evenodd" clip-rule="evenodd" d="M24.2234 30.5942L19.4058 25.7766C19.9354 24.8896 20.4631 23.9725 20.9871 23.0619C22.7292 20.0344 24.4299 17.0787 26.0232 15.5414C30.3499 11.2146 36.2766 13.7234 36.2766 13.7234C36.2766 13.7234 38.7854 19.65 34.4586 23.9768C32.9339 25.557 30.0248 27.2322 27.0204 28.9623C26.0844 29.5013 25.1389 30.0458 24.2234 30.5942ZM27.893 19.3956C27.893 17.8981 29.1069 16.6841 30.6045 16.6841C32.1019 16.6841 33.316 17.8981 33.316 19.3956C33.316 20.8931 32.1019 22.1071 30.6045 22.1071C29.1069 22.1071 27.893 20.8931 27.893 19.3956ZM20.88 18.9981C18.4493 18.3513 16.1686 19.5489 14.1449 21.4052C13.7378 21.7786 13.8228 22.4317 14.296 22.7167L17.5621 24.6843L17.5659 24.6779C18.037 23.8889 18.5637 22.975 19.0973 22.0491C19.7065 20.9918 20.3251 19.9185 20.88 18.9981ZM25.3158 32.4378L27.2833 35.7038C27.5684 36.177 28.2215 36.262 28.5949 35.855C30.4518 33.8306 31.6495 31.5491 31.0014 29.1175C30.1076 29.6561 29.1678 30.1984 28.2368 30.7346L28.0948 30.8164C27.1544 31.3579 26.2238 31.8938 25.3246 32.4325L25.3158 32.4378ZM17.4951 29.0164C17.9554 29.0083 18.4127 29.093 18.8396 29.2654C19.2665 29.4378 19.6544 29.6945 19.9799 30.0201C20.3055 30.3457 20.5622 30.7334 20.7346 31.1605C20.907 31.5873 20.9917 32.0445 20.9836 32.505C20.9755 32.9653 20.8747 33.4192 20.6873 33.8399C20.5009 34.2583 20.2325 34.6351 19.8981 34.948C19.5179 35.3121 18.923 35.5969 18.3715 35.8159C17.7834 36.0498 17.1124 36.2586 16.4859 36.4295C15.8574 36.6011 15.257 36.7391 14.8036 36.8291C14.5785 36.8737 14.3799 36.9085 14.2276 36.9292C14.1546 36.9391 14.0738 36.9484 13.9993 36.9517C13.9656 36.9532 13.9045 36.9551 13.8347 36.9484C13.8013 36.9451 13.7365 36.9374 13.6595 36.9145C13.6086 36.8992 13.4111 36.839 13.2465 36.647C13.1056 36.4826 13.0672 36.311 13.058 36.2697C13.0431 36.2035 13.0386 36.1475 13.0369 36.1177C13.0333 36.0559 13.036 36.0013 13.0381 35.9687C13.0427 35.8982 13.0524 35.8206 13.063 35.7479C13.0849 35.5972 13.1205 35.4002 13.166 35.1757C13.2577 34.7239 13.3969 34.1263 13.5693 33.5005C13.7411 32.8766 13.9504 32.2087 14.1844 31.6231C14.4039 31.0735 14.6886 30.4813 15.052 30.1019C15.365 29.7675 15.7417 29.4991 16.1601 29.3127C16.5807 29.1253 17.0347 29.0245 17.4951 29.0164Z" fill="#212121"/>
</g>
<defs>
<clipPath id="clip0_324_4932">
<rect width="24" height="24" fill="white" transform="translate(13 13)"/>
</clipPath>
</defs>
</svg>
