<svg width="22" height="22" viewBox="0 0 22 22" fill="none" xmlns="http://www.w3.org/2000/svg">
<g clip-path="url(#clip0_350_9240)">
<circle cx="11" cy="11" r="10" fill="white"/>
<path d="M11 0C8.82441 0 6.69767 0.645139 4.88873 1.85383C3.07979 3.06253 1.66989 4.78049 0.83733 6.79048C0.00476615 8.80047 -0.213071 11.0122 0.211367 13.146C0.635804 15.2798 1.68345 17.2398 3.22183 18.7782C4.76021 20.3166 6.72022 21.3642 8.85401 21.7886C10.9878 22.2131 13.1995 21.9952 15.2095 21.1627C17.2195 20.3301 18.9375 18.9202 20.1462 17.1113C21.3549 15.3023 22 13.1756 22 11C22 8.08262 20.8411 5.28473 18.7782 3.22183C16.7153 1.15893 13.9174 0 11 0ZM16.7017 9.515L14.1442 11.7883C14.0731 11.8527 14.0236 11.9374 14.0023 12.0308C13.981 12.1243 13.9889 12.222 14.025 12.3108L15.5192 15.7483C15.5592 15.8357 15.57 15.9337 15.5502 16.0277C15.5304 16.1217 15.481 16.207 15.4092 16.2708C15.3385 16.3359 15.2491 16.3771 15.1537 16.3886C15.0583 16.4002 14.9617 16.3814 14.8775 16.335L11.2108 14.2725C11.1399 14.2363 11.0613 14.2174 10.9817 14.2174C10.902 14.2174 10.8235 14.2363 10.7525 14.2725L7.08584 16.335C7.00168 16.3814 6.90507 16.4002 6.80966 16.3886C6.71425 16.3771 6.62488 16.3359 6.55417 16.2708C6.48235 16.207 6.4329 16.1217 6.4131 16.0277C6.3933 15.9337 6.40419 15.8357 6.44417 15.7483L7.97501 12.3108C8.01111 12.222 8.01904 12.1243 7.99772 12.0308C7.97641 11.9374 7.92688 11.8527 7.85584 11.7883L5.29834 9.515C5.2312 9.44997 5.18424 9.36695 5.16311 9.27589C5.14197 9.18484 5.14755 9.08963 5.17917 9.00167C5.21269 8.9148 5.27187 8.8402 5.34883 8.7878C5.4258 8.7354 5.5169 8.70768 5.61 8.70833H8.64417C8.73337 8.7075 8.82047 8.68116 8.89518 8.63244C8.9699 8.58371 9.02911 8.51462 9.06584 8.43333L10.5783 4.91333C10.6136 4.83065 10.6723 4.76015 10.7473 4.7106C10.8223 4.66105 10.9101 4.63463 11 4.63463C11.0899 4.63463 11.1778 4.66105 11.2527 4.7106C11.3277 4.76015 11.3865 4.83065 11.4217 4.91333L12.9342 8.43333C12.9709 8.51462 13.0301 8.58371 13.1048 8.63244C13.1795 8.68116 13.2666 8.7075 13.3558 8.70833H16.39C16.4831 8.70768 16.5742 8.7354 16.6512 8.7878C16.7281 8.8402 16.7873 8.9148 16.8208 9.00167C16.8525 9.08963 16.858 9.18484 16.8369 9.27589C16.8158 9.36695 16.7688 9.44997 16.7017 9.515Z" fill="#8868E3"/>
</g>
<defs>
<clipPath id="clip0_350_9240">
<rect width="22" height="22" fill="white"/>
</clipPath>
</defs>
</svg>
