<svg width="30" height="30" viewBox="0 0 30 30" fill="none" xmlns="http://www.w3.org/2000/svg">
<g clip-path="url(#clip0_328_6676)">
<path fill-rule="evenodd" clip-rule="evenodd" d="M21.4719 1.57653C19.4518 0.603183 17.238 0.0983355 14.9956 0.0996118C12.3005 0.100508 9.65566 0.8324 7.34353 2.21734C5.03131 3.60235 3.13805 5.58859 1.8654 7.9645C0.592756 10.3404 -0.0116135 13.017 0.116664 15.7093C0.236107 18.2161 0.986581 20.649 2.29447 22.7839L0.163977 28.4521C0.0283037 28.8132 0.0970722 29.2193 0.344043 29.5154C0.591012 29.8116 0.97808 29.9521 1.35755 29.8836L8.78465 28.5404C10.7118 29.4256 12.807 29.89 14.9303 29.9005C17.1728 29.9114 19.3889 29.4164 21.4133 28.4517C23.4378 27.4872 25.2185 26.0781 26.6225 24.3295C28.0265 22.5811 29.0178 20.5382 29.5224 18.3532C30.0271 16.1682 30.032 13.8975 29.537 11.7104C29.0418 9.52322 28.0595 7.47602 26.663 5.72138C25.2667 3.96675 23.4922 2.54991 21.4719 1.57653ZM7.27404 11.5843C7.27404 10.8447 7.87366 10.245 8.61333 10.245H21.3786C22.1182 10.245 22.718 10.8447 22.718 11.5843C22.718 12.324 22.1182 12.9236 21.3786 12.9236H8.61333C7.87366 12.9236 7.27404 12.324 7.27404 11.5843ZM8.61333 17.0766C7.87366 17.0766 7.27404 17.6762 7.27404 18.4159C7.27404 19.1556 7.87366 19.7552 8.61333 19.7552H17.1235C17.8632 19.7552 18.4628 19.1556 18.4628 18.4159C18.4628 17.6762 17.8632 17.0766 17.1235 17.0766H8.61333Z" fill="white"/>
</g>
<defs>
<clipPath id="clip0_328_6676">
<rect width="30" height="30" fill="white"/>
</clipPath>
</defs>
</svg>
