<svg width="204" height="161" viewBox="0 0 204 161" fill="none" xmlns="http://www.w3.org/2000/svg">
<path d="M1.07617 116.796C3.60379 128.161 6.59614 140.316 14.7407 149.139C23.6021 158.708 37.2698 163.626 49.6782 158.144C60.1894 153.498 66.2716 142.196 67.5603 131.215C68.95 119.416 64.13 107.613 58.9384 97.297C56.4583 92.3571 53.8681 87.5003 51.8294 82.353C51.1791 80.7118 52.2444 83.7852 51.7351 82.1101C51.5115 81.3713 51.2828 80.6351 51.0878 79.8888C50.7275 78.5343 50.4499 77.1593 50.2564 75.7715C50.2153 75.4606 50.1937 75.1433 50.1449 74.8298C49.9886 73.8298 50.2067 75.6255 50.1975 75.6654C50.3383 75.1365 50.1526 74.3245 50.1606 73.7677C50.2047 72.4024 50.3245 71.0407 50.5196 69.6888C50.6513 68.6533 50.3522 70.6004 50.3444 70.6107C50.461 70.32 50.5398 70.0155 50.5789 69.7047C50.7472 69.1076 50.9387 68.5185 51.1534 67.9372C51.2727 67.586 52.1279 65.7159 51.4457 67.0767C50.7635 68.4374 51.8842 66.4208 52.1262 66.064C52.3681 65.7071 53.8845 63.8335 52.8194 65.0771C51.8465 66.2143 52.9813 64.9814 53.255 64.7344C53.6104 64.4247 53.9889 64.1229 54.3637 63.8198C55.8482 62.6239 52.8981 64.5787 54.1395 63.9717C54.9252 63.5887 55.9728 63.2602 56.6996 62.784C56.7618 62.7406 54.6551 63.3808 55.5523 63.1776C55.7772 63.1249 56.0049 63.0387 56.2286 62.977C56.7614 62.8308 57.3017 62.7131 57.8446 62.6134C58.3073 62.521 58.7879 62.4647 59.2596 62.3968C59.4909 62.3635 59.7452 62.3767 59.974 62.3253C60.0542 62.3052 57.8071 62.3554 58.7584 62.4246C59.8117 62.4983 60.8645 62.4212 61.9216 62.522C62.4869 62.572 63.0634 62.7033 63.6288 62.7404C64.6099 62.7982 62.2835 62.447 62.3853 62.4773C62.6174 62.5561 62.8729 62.5784 63.1115 62.6379C64.1587 62.9075 65.1915 63.1938 66.2098 63.5612C66.6816 63.7215 67.1429 63.9126 67.6042 64.1037C67.8362 64.1825 68.0589 64.327 68.2909 64.4059C69.2229 64.7224 67.0816 63.7756 67.1665 63.8302C68.0688 64.4122 69.0504 64.8618 69.9461 65.4631C70.3579 65.7364 70.7606 66.0238 71.1569 66.3048C71.4515 66.5297 72.75 67.6594 71.6266 66.6236C70.5033 65.5878 71.9465 66.9518 72.2305 67.2204C72.7984 67.7834 73.3507 68.367 73.8796 68.9685C74.6705 69.8656 75.419 70.7984 76.1252 71.7671C76.2759 72.0261 76.4497 72.2709 76.6445 72.4987C76.6445 72.4987 75.6247 70.8913 76.155 71.7557C76.5251 72.3549 76.903 72.9438 77.2693 73.5546C78.5329 75.7446 79.6474 78.0169 80.6051 80.3562C81.084 81.4858 81.5259 82.6273 81.9307 83.7806C82.0351 84.07 82.1253 84.3632 82.24 84.6475C81.4126 82.5501 81.8926 83.6385 82.0463 84.1512C82.2469 84.8306 82.4836 85.5178 82.6906 86.2036C84.2046 91.1684 85.3657 96.2327 86.6742 101.257C89.5759 112.434 93.2732 124.089 101.135 132.88C109.264 141.964 120.956 147.619 133.243 146.292C145.53 144.965 155.158 134.893 159.055 123.7C163.058 112.208 161.284 99.4634 157.667 88.1162C154.083 76.8787 149 66.3329 143.373 55.9899C138.089 46.2756 132.229 36.7355 128.014 26.5021C127.547 25.3364 127.087 24.1514 126.63 22.9587C126.019 21.3139 127.103 24.497 126.588 22.8282C126.373 22.1269 126.153 21.4281 125.953 20.723C125.21 18.1255 124.669 15.4752 124.332 12.7954C124.29 12.4497 124.113 10.4183 124.226 11.8383C124.339 13.2582 124.21 11.213 124.202 10.8662C124.17 9.58542 124.204 8.3039 124.303 7.02675C124.386 6.00893 124.6 5.00999 124.698 3.99743C124.712 3.86861 124.208 6.18957 124.467 5.21024C124.549 4.971 124.581 4.71082 124.643 4.46501C124.785 3.88069 124.947 3.30292 125.124 2.73042C125.424 1.74749 125.786 0.781724 126.163 -0.174933C126.389 -0.726495 126.688 -1.26213 126.891 -1.82157C126.931 -1.9412 125.841 0.163336 126.35 -0.713844C126.52 -1.00925 126.671 -1.31508 126.84 -1.61049C127.345 -2.49801 127.868 -3.36609 128.477 -4.19237C128.769 -4.60386 129.07 -5.00928 129.381 -5.40863L129.853 -5.9973C130.624 -6.99658 129.457 -5.49065 129.243 -5.34377C130.016 -5.94213 130.645 -6.7786 131.384 -7.41842C131.751 -7.72417 132.137 -8.04913 132.533 -8.34954C132.725 -8.49527 132.946 -8.63953 133.114 -8.78927C133.91 -9.49577 131.401 -7.79988 132.344 -8.28887C133.21 -8.74356 134.026 -9.26688 134.923 -9.67239C135.433 -9.90374 136.011 -10.056 136.508 -10.3133C136.535 -10.3299 134.521 -9.78322 135.415 -9.91417C135.733 -9.96113 136.056 -10.088 136.363 -10.1647C136.835 -10.2841 137.336 -10.3763 137.827 -10.4505C138.147 -10.5014 139.87 -10.6992 138.492 -10.5649C137.113 -10.4306 139.093 -10.5198 139.464 -10.5059C140.19 -10.4742 140.902 -10.3833 141.622 -10.3065C143.374 -10.1072 139.899 -10.797 141.598 -10.3144C142.194 -10.1379 142.781 -9.98595 143.384 -9.78102C143.987 -9.57609 144.561 -9.35976 145.136 -9.1215C145.426 -8.99719 145.705 -8.85491 145.998 -8.73833C147.159 -8.27075 144.374 -9.67289 145.439 -9.01C146.61 -8.28069 147.798 -7.62732 148.919 -6.81197C149.435 -6.43873 149.929 -6.03856 150.43 -5.64866C150.635 -5.4888 151.448 -4.74758 150.492 -5.62764C149.479 -6.55703 150.56 -5.54859 150.754 -5.35786C152.684 -3.45764 154.435 -1.3834 155.982 0.838313C157.008 2.27567 155.195 -0.462187 156.11 1.04537C156.459 1.59414 156.803 2.16738 157.136 2.73668C157.866 3.9745 158.551 5.22879 159.192 6.49958C160.505 9.05894 161.702 11.6563 162.853 14.2984C165.361 19.9835 167.814 25.689 170.295 31.3869L201.182 102.476L208.803 119.987C210.755 124.476 217.034 126.575 221.313 124.236C225.929 121.72 227.637 116.541 225.554 111.753L194.774 41.0105C189.661 29.258 184.613 17.4762 179.433 5.75682C174.551 -5.26719 168.438 -16.3648 158.071 -23.1402C147.94 -29.7581 134.423 -31.5649 123.837 -24.9085C114.51 -19.0381 108.444 -9.58546 106.355 1.16222C101.836 24.2036 116.49 45.5325 126.942 64.8057C129.58 69.6744 132.142 74.5904 134.456 79.6247C135.654 82.231 136.785 84.8704 137.807 87.5375C138.272 88.7071 138.541 90.2015 139.181 91.2626C139.162 91.2302 138.627 89.5807 138.937 90.5727L139.247 91.5131C139.484 92.2519 139.712 92.9881 139.934 93.7307C140.727 96.355 141.38 99.0192 141.89 101.712C142.127 103.003 142.327 104.301 142.488 105.604C142.524 105.93 142.547 106.256 142.588 106.58C142.763 107.853 142.516 104.834 142.567 106.121C142.598 106.88 142.638 107.639 142.655 108.402C142.648 109.691 142.632 111.007 142.501 112.296C142.444 112.944 142.369 113.586 142.275 114.23C142.227 114.549 142.166 114.869 142.12 115.193C141.953 116.462 142.572 113.418 142.217 114.654C141.902 115.76 141.639 116.863 141.248 117.953C141.066 118.489 140.852 119.015 140.628 119.537C139.785 121.51 141.406 118.235 140.634 119.608C140.089 120.603 139.492 121.57 138.848 122.504C138.519 122.965 138.166 123.405 137.817 123.876C137.639 124.108 136.948 124.872 137.889 123.827C138.947 122.667 137.788 123.909 137.545 124.141C136.739 124.913 135.888 125.637 134.997 126.31C133.696 127.322 136.586 125.442 135.124 126.215C134.547 126.518 133.985 126.839 133.388 127.11C133.062 127.258 131.282 127.927 132.688 127.445C134.094 126.963 132.286 127.523 131.926 127.617C131.383 127.742 130.84 127.842 130.291 127.922C128.246 128.217 131.741 127.984 130.237 127.955C129.137 127.958 128.038 127.895 126.945 127.767C126.672 127.734 126.402 127.677 126.124 127.643C125.105 127.52 127.288 127.887 127.225 127.857C126.648 127.614 125.944 127.539 125.34 127.35C124.188 126.994 123.094 126.342 121.927 126.032C121.865 126.011 123.801 127.03 122.893 126.515C122.643 126.374 122.388 126.249 122.138 126.108C121.55 125.783 120.977 125.438 120.409 125.09C119.437 124.463 118.498 123.787 117.596 123.063C117.316 122.843 115.811 121.574 116.958 122.553C118.105 123.533 116.475 122.045 116.191 121.751C115.387 120.926 114.625 120.061 113.909 119.159C113.554 118.707 113.219 118.245 112.878 117.789C112.727 117.587 112.177 116.742 112.878 117.789C113.619 118.923 112.832 117.696 112.69 117.467C111.279 115.161 110.046 112.752 109 110.261C108.512 109.108 108.053 107.948 107.624 106.781C107.52 106.491 107.436 106.179 107.307 105.898C107.307 105.898 107.884 107.652 107.581 106.667C107.362 105.964 107.123 105.272 106.908 104.571C106.137 102.053 105.449 99.5082 104.79 96.9646C103.472 91.8425 102.281 86.6904 100.696 81.6414C97.0945 70.1615 91.9302 59.2955 82.401 51.5522C74.6339 45.2123 63.1974 42.3475 53.3831 44.5229C40.5324 47.3197 32.2997 58.4769 31.5513 71.3845C30.8254 83.934 36.9174 94.9515 42.3323 105.804C43.5313 108.204 44.689 110.624 45.725 113.098C46.2239 114.283 46.6853 115.477 47.1337 116.684C47.7439 118.329 46.6778 115.169 47.1767 116.849C47.3695 117.552 47.5995 118.284 47.7974 118.984C48.1535 120.31 48.4579 121.649 48.6939 122.999C48.8053 123.61 48.8994 124.235 48.9762 124.872C49.0159 125.187 49.0337 125.503 49.0863 125.818C49.2635 127.049 49.032 124.048 49.0399 125.294C49.0456 126.471 49.1055 127.641 49.017 128.816C48.9833 129.334 48.9316 129.854 48.8645 130.369C48.8322 130.629 48.7908 130.891 48.7546 131.15C48.5828 132.443 48.8573 130.517 48.9465 130.242C48.6096 131.234 48.4467 132.285 48.1086 133.28C47.9395 133.778 47.7704 134.276 47.5626 134.76C47.4083 135.138 46.5037 137.065 47.2526 135.546C48.0015 134.027 47.1473 135.691 46.9454 136.031C46.6823 136.476 46.4076 136.916 46.1162 137.342C45.7793 137.839 45.4115 138.312 45.0501 138.792C44.1699 139.974 46.5812 137.319 45.1409 138.702C44.409 139.409 43.662 140.059 42.8647 140.692C42.6529 140.829 42.4488 140.976 42.2529 141.135C42.2529 141.135 44.0089 140.156 43.1885 140.488C42.6541 140.703 42.1565 141.063 41.6194 141.298C41.3819 141.387 41.1491 141.487 40.9219 141.599C40.1616 142.06 41.994 141.262 41.994 141.262C41.4951 141.359 41.006 141.555 40.507 141.665C40.0081 141.775 39.2361 141.737 38.7908 141.943C38.7908 141.943 40.7538 141.904 39.7764 141.873C39.393 141.859 39.0132 141.885 38.6298 141.871C38.0579 141.853 37.4912 141.807 36.9248 141.722C36.6454 141.664 36.3627 141.622 36.0783 141.598C36.0783 141.598 38.0889 142.105 37.1337 141.78C35.9426 141.375 34.755 141.037 33.5798 140.573C32.063 139.959 35.3901 141.592 33.4743 140.49C32.9619 140.195 32.4598 139.883 31.9734 139.549C31.487 139.216 31.0007 138.87 30.5286 138.508C30.2919 138.328 30.063 138.139 29.8328 137.953C28.827 137.181 30.0649 138.032 30.2994 138.383C29.683 137.454 28.5816 136.671 27.8526 135.795C27.4753 135.344 27.1277 134.869 26.7634 134.405C26.6068 134.206 26.0701 133.348 26.7247 134.392C27.4356 135.525 26.6556 134.265 26.5185 134.047C25.1483 131.777 23.9845 129.389 23.0411 126.913C22.8104 126.322 22.6418 125.688 22.3607 125.106C23.3492 127.276 22.4285 125.237 22.2365 124.634C21.8623 123.399 21.5131 122.159 21.1888 120.912C20.5137 118.316 19.9394 115.702 19.3471 113.077C18.2865 108.314 13.2696 104.557 8.3177 105.801C3.49916 106.984 -0.056307 111.698 1.07617 116.796Z" fill="#F3F3F3"/>
</svg>
