<svg width="24" height="24" viewBox="0 0 24 24" fill="none" xmlns="http://www.w3.org/2000/svg">
<g clip-path="url(#clip0_619_6433)">
<path d="M10.781 10.5132C9.66842 9.53145 8.23377 8.99297 6.75 9.00018C5.2805 8.98866 3.85788 9.51684 2.75194 10.4845C1.64599 11.4522 0.933647 12.7922 0.75 14.2502" stroke="#212121" stroke-width="1.5" stroke-linecap="round" stroke-linejoin="round"/>
<path d="M3.375 4.125C3.375 5.02011 3.73058 5.87855 4.36351 6.51149C4.99645 7.14442 5.85489 7.5 6.75 7.5C7.64511 7.5 8.50355 7.14442 9.13649 6.51149C9.76942 5.87855 10.125 5.02011 10.125 4.125C10.125 3.22989 9.76942 2.37145 9.13649 1.73851C8.50355 1.10558 7.64511 0.75 6.75 0.75C5.85489 0.75 4.99645 1.10558 4.36351 1.73851C3.73058 2.37145 3.375 3.22989 3.375 4.125Z" stroke="#212121" stroke-width="1.5" stroke-linecap="round" stroke-linejoin="round"/>
<path d="M13.875 3.375C13.875 4.07119 14.1516 4.73887 14.6438 5.23116C15.1361 5.72344 15.8038 6 16.5 6C17.1962 6 17.8639 5.72344 18.3562 5.23116C18.8484 4.73887 19.125 4.07119 19.125 3.375C19.125 2.67881 18.8484 2.01113 18.3562 1.51884C17.8639 1.02656 17.1962 0.75 16.5 0.75C15.8038 0.75 15.1361 1.02656 14.6438 1.51884C14.1516 2.01113 13.875 2.67881 13.875 3.375Z" stroke="#212121" stroke-width="1.5" stroke-linecap="round" stroke-linejoin="round"/>
<path d="M20.4 9.00018C20.0419 8.38067 19.5413 7.85546 18.9396 7.46815C18.338 7.08085 17.6526 6.8426 16.9404 6.77318C16.2283 6.70376 15.5098 6.80518 14.8447 7.069C14.1795 7.33283 13.5869 7.75147 13.116 8.29018" stroke="#212121" stroke-width="1.5" stroke-linecap="round" stroke-linejoin="round"/>
<path d="M19.5 15.75H23.25V11.25" stroke="#212121" stroke-width="1.5" stroke-linecap="round" stroke-linejoin="round"/>
<path d="M23.0611 15.7496C22.7237 14.4405 21.9541 13.2837 20.877 12.4667C19.7999 11.6497 18.4784 11.2204 17.1268 11.2484C15.7752 11.2763 14.4727 11.7599 13.4303 12.6208C12.3879 13.4817 11.6668 14.6693 11.3839 15.9913C11.1009 17.3132 11.2727 18.692 11.8714 19.9041C12.4701 21.1162 13.4605 22.0906 14.6823 22.6694C15.904 23.2482 17.2854 23.3974 18.6025 23.0929C19.9197 22.7883 21.0954 22.0479 21.9391 20.9916" stroke="#212121" stroke-width="1.5" stroke-linecap="round" stroke-linejoin="round"/>
</g>
<defs>
<clipPath id="clip0_619_6433">
<rect width="24" height="24" fill="white"/>
</clipPath>
</defs>
</svg>
