<svg width="31" height="31" viewBox="0 0 31 31" fill="none" xmlns="http://www.w3.org/2000/svg">
<g clip-path="url(#clip0_324_4079)">
<path d="M23.9875 17.6752C23.1411 17.6769 22.3037 17.8488 21.5251 18.1806C20.7465 18.5124 20.0425 18.9975 19.4551 19.6068L12.524 16.135C12.5839 15.8099 12.6177 15.4806 12.625 15.1502C12.6177 14.8198 12.5839 14.4905 12.524 14.1655L19.4551 10.6936C20.475 11.7456 21.829 12.4101 23.2851 12.5731C24.7412 12.7361 26.2087 12.3876 27.4359 11.5872C28.6631 10.7868 29.5737 9.58438 30.0116 8.18614C30.4494 6.78789 30.3872 5.28089 29.8356 3.92348C29.2841 2.56608 28.2775 1.44281 26.9885 0.746263C25.6994 0.0497138 24.2082 -0.176736 22.7705 0.105735C21.3328 0.388206 20.0382 1.162 19.1085 2.29447C18.1788 3.42694 17.672 4.84754 17.675 6.31273C17.6824 6.64314 17.7162 6.97244 17.776 7.29748L10.8449 10.7694C9.97158 9.86335 8.84742 9.23905 7.61673 8.97657C6.38603 8.7141 5.10498 8.82544 3.93802 9.2963C2.77107 9.76716 1.77147 10.576 1.06756 11.6191C0.363646 12.6622 -0.0124512 13.8919 -0.0124512 15.1502C-0.0124512 16.4086 0.363646 17.6383 1.06756 18.6813C1.77147 19.7244 2.77107 20.5333 3.93802 21.0042C5.10498 21.475 6.38603 21.5864 7.61673 21.3239C8.84742 21.0614 9.97158 20.4371 10.8449 19.5311L17.776 23.003C17.7162 23.328 17.6824 23.6573 17.675 23.9877C17.675 25.2362 18.0452 26.4567 18.7389 27.4948C19.4325 28.5328 20.4184 29.3419 21.5718 29.8197C22.7253 30.2975 23.9945 30.4225 25.219 30.1789C26.4435 29.9354 27.5683 29.3342 28.4511 28.4513C29.3339 27.5685 29.9352 26.4437 30.1787 25.2192C30.4223 23.9947 30.2973 22.7255 29.8195 21.572C29.3417 20.4186 28.5326 19.4327 27.4946 18.7391C26.4565 18.0454 25.236 17.6752 23.9875 17.6752Z" fill="white"/>
</g>
<defs>
<clipPath id="clip0_324_4079">
<rect width="30.3" height="30.3" fill="white"/>
</clipPath>
</defs>
</svg>
