<svg width="34" height="34" viewBox="0 0 34 34" fill="none" xmlns="http://www.w3.org/2000/svg">
<g clip-path="url(#clip0_324_4087)">
<path d="M32.9999 15.6663C32.9999 15.2285 32.9137 14.7951 32.7462 14.3907C32.5786 13.9863 32.3331 13.6188 32.0236 13.3093C31.7141 12.9997 31.3466 12.7542 30.9422 12.5867C30.5378 12.4192 30.1043 12.333 29.6666 12.333H21.2532C21.2009 12.3366 21.1486 12.3261 21.1017 12.3027C21.0548 12.2792 21.015 12.2437 20.9866 12.1996C20.9642 12.154 20.9526 12.1038 20.9526 12.053C20.9526 12.0021 20.9642 11.9519 20.9866 11.9063C21.726 10.0402 21.965 8.01322 21.6799 6.02629C20.8932 3.22629 19.2399 2.42629 17.9332 2.59962C17.2786 2.69806 16.6839 3.03649 16.265 3.54909C15.846 4.06169 15.6327 4.7118 15.6666 5.37295C15.6666 8.99962 12.8266 12.9996 10.3332 14.7863C10.2426 14.8489 10.1686 14.9326 10.1175 15.0301C10.0664 15.1277 10.0398 15.2362 10.0399 15.3463V28.8263C10.0373 28.9806 10.0894 29.1309 10.187 29.2505C10.2846 29.3701 10.4215 29.4513 10.5732 29.4796L11.9066 29.7463C13.7009 30.1775 15.5412 30.3879 17.3866 30.373H26.0532C28.7199 30.373 29.0532 28.9196 29.0532 28.0396C29.0565 27.5773 28.9515 27.1207 28.7466 26.7063C29.2389 26.4559 29.6526 26.0744 29.942 25.6038C30.2314 25.1333 30.3852 24.592 30.3866 24.0396C30.3899 23.5773 30.2848 23.1207 30.0799 22.7063C30.4408 22.5283 30.7625 22.2798 31.0258 21.9754C31.2891 21.6711 31.4888 21.3171 31.6131 20.9343C31.7374 20.5515 31.7837 20.1477 31.7494 19.7467C31.7151 19.3458 31.6008 18.9557 31.4132 18.5996C31.9129 18.2941 32.3229 17.8618 32.6016 17.3466C32.8803 16.8315 33.0177 16.2517 32.9999 15.6663Z" fill="white"/>
<path d="M8 15.3734C8 15.0198 7.85952 14.6806 7.60948 14.4306C7.35943 14.1805 7.02029 14.04 6.66667 14.04H2.33333C1.97971 14.04 1.64057 14.1805 1.39052 14.4306C1.14048 14.6806 1 15.0198 1 15.3734L1 30.04C1 30.3937 1.14048 30.7328 1.39052 30.9828C1.64057 31.2329 1.97971 31.3734 2.33333 31.3734H6.66667C7.02029 31.3734 7.35943 31.2329 7.60948 30.9828C7.85952 30.7328 8 30.3937 8 30.04V15.3734ZM6 27.6667C6.00798 27.866 5.95618 28.0631 5.85126 28.2327C5.74634 28.4024 5.59309 28.5367 5.41121 28.6186C5.22933 28.7005 5.02713 28.7261 4.83059 28.6921C4.63405 28.6582 4.45215 28.5662 4.30827 28.4281C4.16439 28.29 4.0651 28.112 4.02316 27.917C3.98122 27.722 3.99855 27.5189 4.07292 27.3338C4.14728 27.1488 4.2753 26.9902 4.4405 26.8784C4.6057 26.7667 4.80055 26.7069 5 26.7067C5.25843 26.7065 5.5069 26.8063 5.69333 26.9853C5.87976 27.1643 5.98966 27.4085 6 27.6667Z" fill="white"/>
<circle cx="5" cy="28" r="2" fill="white"/>
</g>
<defs>
<clipPath id="clip0_324_4087">
<rect width="33.3" height="33.3" fill="white"/>
</clipPath>
</defs>
</svg>
