<svg width="20" height="20" viewBox="0 0 20 20" fill="none" xmlns="http://www.w3.org/2000/svg">
<g clip-path="url(#clip0_595_5308)">
<path d="M15.8825 19.2542L10.735 15.5108C10.5214 15.3556 10.2641 15.2719 10 15.2719C9.73591 15.2719 9.47861 15.3556 9.265 15.5108L4.1175 19.2542C4.02435 19.3219 3.9143 19.3625 3.7995 19.3717C3.6847 19.3808 3.56961 19.358 3.46694 19.3059C3.36427 19.2537 3.278 19.1742 3.21766 19.0761C3.15732 18.978 3.12525 18.8652 3.125 18.75V1.875C3.125 1.54348 3.2567 1.22554 3.49112 0.991117C3.72554 0.756696 4.04348 0.625 4.375 0.625H15.625C15.9565 0.625 16.2745 0.756696 16.5089 0.991117C16.7433 1.22554 16.875 1.54348 16.875 1.875V18.75C16.8747 18.8652 16.8427 18.978 16.7823 19.0761C16.722 19.1742 16.6357 19.2537 16.5331 19.3059C16.4304 19.358 16.3153 19.3808 16.2005 19.3717C16.0857 19.3625 15.9756 19.3219 15.8825 19.2542Z" stroke="white" stroke-width="2" stroke-linecap="round" stroke-linejoin="round"/>
</g>
<defs>
<clipPath id="clip0_595_5308">
<rect width="20" height="20" fill="white"/>
</clipPath>
</defs>
</svg>
