<svg width="50" height="50" viewBox="0 0 50 50" fill="none" xmlns="http://www.w3.org/2000/svg">
<rect width="50" height="50" rx="25" fill="white" fill-opacity="0.5"/>
<g clip-path="url(#clip0_324_4946)">
<path fill-rule="evenodd" clip-rule="evenodd" d="M35.5 15.5C35.5 15.108 35.3161 14.7387 35.0032 14.5024C34.6904 14.2662 34.2848 14.1904 33.9078 14.2978L20.2077 18.1978C19.6705 18.3507 19.3 18.8415 19.3 19.4V28.9758C18.657 28.6399 17.9257 28.45 17.15 28.45C14.5819 28.45 12.5 30.5318 12.5 33.1C12.5 35.6681 14.5819 37.75 17.15 37.75C19.7182 37.75 21.8 35.6681 21.8 33.1V20.3439L33 17.1555V25.0758C32.357 24.7399 31.6257 24.55 30.85 24.55C28.2818 24.55 26.2 26.6319 26.2 29.2C26.2 31.7681 28.2819 33.85 30.85 33.85C33.4181 33.85 35.5 31.7682 35.5 29.2V15.5Z" fill="#212121"/>
</g>
<defs>
<clipPath id="clip0_324_4946">
<rect width="24" height="24" fill="white" transform="translate(12 14)"/>
</clipPath>
</defs>
</svg>
