<svg width="17" height="17" viewBox="0 0 17 17" fill="none" xmlns="http://www.w3.org/2000/svg">
<g clip-path="url(#clip0_324_4195)">
<path d="M8.5 0C6.81886 0 5.17547 0.498516 3.77766 1.43251C2.37984 2.3665 1.29037 3.69402 0.647028 5.24719C0.00368293 6.80036 -0.164645 8.50943 0.163329 10.1583C0.491303 11.8071 1.30085 13.3217 2.4896 14.5104C3.67834 15.6992 5.1929 16.5087 6.84174 16.8367C8.49057 17.1646 10.1996 16.9963 11.7528 16.353C13.306 15.7096 14.6335 14.6202 15.5675 13.2223C16.5015 11.8245 17 10.1811 17 8.5C17 6.24566 16.1045 4.08365 14.5104 2.48959C12.9164 0.895533 10.7543 0 8.5 0ZM12.9058 7.3525L10.9296 9.10917C10.8747 9.15891 10.8364 9.22432 10.8199 9.29654C10.8035 9.36876 10.8096 9.4443 10.8375 9.51292L11.9921 12.1692C12.023 12.2367 12.0314 12.3124 12.0161 12.385C12.0008 12.4577 11.9626 12.5236 11.9071 12.5729C11.8525 12.6232 11.7834 12.6551 11.7097 12.664C11.6359 12.6728 11.5613 12.6583 11.4963 12.6225L8.66292 11.0287C8.60808 11.0008 8.5474 10.9862 8.48584 10.9862C8.42427 10.9862 8.36359 11.0008 8.30875 11.0287L5.47542 12.6225C5.41039 12.6583 5.33573 12.6728 5.26201 12.664C5.18829 12.6551 5.11922 12.6232 5.06459 12.5729C5.00909 12.5236 4.97088 12.4577 4.95558 12.385C4.94028 12.3124 4.94869 12.2367 4.97959 12.1692L6.1625 9.51292C6.1904 9.4443 6.19653 9.36876 6.18006 9.29654C6.16359 9.22432 6.12531 9.15891 6.07042 9.10917L4.09417 7.3525C4.04229 7.30225 4.00601 7.23809 3.98967 7.16774C3.97334 7.09738 3.97765 7.0238 4.00209 6.95583C4.02799 6.88871 4.07372 6.83106 4.13319 6.79057C4.19266 6.75008 4.26306 6.72866 4.335 6.72917H6.67959C6.74851 6.72852 6.81581 6.70817 6.87355 6.67052C6.93128 6.63287 6.97704 6.57948 7.00542 6.51667L8.17417 3.79667C8.20139 3.73278 8.24678 3.6783 8.30472 3.64001C8.36265 3.60172 8.43056 3.5813 8.5 3.5813C8.56945 3.5813 8.63736 3.60172 8.69529 3.64001C8.75322 3.6783 8.79862 3.73278 8.82584 3.79667L9.99459 6.51667C10.023 6.57948 10.0687 6.63287 10.1265 6.67052C10.1842 6.70817 10.2515 6.72852 10.3204 6.72917H12.665C12.7369 6.72866 12.8073 6.75008 12.8668 6.79057C12.9263 6.83106 12.972 6.88871 12.9979 6.95583C13.0224 7.0238 13.0267 7.09738 13.0103 7.16774C12.994 7.23809 12.9577 7.30225 12.9058 7.3525Z" fill="#212121"/>
</g>
<defs>
<clipPath id="clip0_324_4195">
<rect width="17" height="17" fill="white"/>
</clipPath>
</defs>
</svg>
