<svg width="311" height="210" viewBox="0 0 311 210" fill="none" xmlns="http://www.w3.org/2000/svg">
<path d="M320.786 44.7504C322.174 41.3109 320.855 44.4911 320.472 45.3201C319.978 46.381 319.459 47.4294 318.912 48.4654C317.893 50.4126 316.775 52.3161 315.559 54.1758C314.994 55.0463 314.415 55.901 313.823 56.7398C313.632 57.0118 312.203 59.1715 313.43 57.297C314.51 55.6567 313.563 57.1036 313.234 57.5143C311.861 59.2373 310.412 60.9008 308.888 62.505C307.364 64.1091 305.772 65.6518 304.112 67.1328C303.334 67.8301 302.542 68.5058 301.735 69.1599C301.333 69.4902 300.921 69.8136 300.522 70.1487C299.512 70.9872 303.15 68.1758 300.747 69.9595C297.176 72.6083 293.408 74.9816 289.477 77.059C287.623 78.0332 285.736 78.9495 283.827 79.7948C283.343 80.0053 281.676 80.6903 283.61 79.9209C285.787 79.0363 283.336 80.0157 283.009 80.1413C281.913 80.5653 280.803 80.9653 279.692 81.3403C275.5 82.768 271.204 83.8695 266.842 84.635C266.38 84.7166 262.832 85.0953 265.028 84.9544C267.224 84.8134 264.689 84.9832 264.357 85.0216C263.845 85.0739 263.326 85.1241 262.813 85.164C260.632 85.3482 258.443 85.442 256.246 85.4455C254.05 85.449 251.819 85.3672 249.554 85.2001C248.499 85.1167 247.452 85.0027 246.405 84.8888C244.887 84.732 246.259 84.328 247.293 85.0177C246.87 84.7344 245.841 84.7968 245.349 84.7154C240.827 83.9578 236.37 82.8584 232.015 81.4268C231.018 81.0948 230.029 80.7514 229.048 80.3966C228.557 80.2176 228.068 80.031 227.579 79.8444C226.586 79.4795 226.356 78.8516 228.428 80.1957C226.558 78.9539 224.028 78.2761 221.999 77.2617C218.004 75.2688 214.145 73.0138 210.448 70.5113C209.581 69.9186 208.715 69.3183 207.867 68.7019C207.442 68.3937 207.024 68.0627 206.593 67.7649C206.792 67.9073 209.042 69.6701 207.355 68.3217C205.491 66.8246 203.683 65.3339 201.898 63.7517C198.559 60.7632 195.409 57.5691 192.467 54.1881C191.774 53.3953 191.092 52.5918 190.421 51.7776C190.088 51.3712 189.762 50.9543 189.429 50.5479C188.036 48.8286 189.954 51.1971 190.073 51.3796C188.786 49.3986 187.271 47.557 185.969 45.5844C183.04 41.1363 180.421 36.4908 178.133 31.6811C177.594 30.5428 177.089 29.3973 176.568 28.2554C175.59 26.1075 176.68 28.4483 176.775 28.8122C176.625 28.2543 176.296 27.6327 176.075 27.0642C175.044 24.4247 174.104 21.7453 173.255 19.026C171.658 13.903 170.409 8.67823 169.514 3.38719C169.249 2.14876 169.059 0.895268 168.946 -0.366297C169.08 2.83967 168.897 -0.938146 168.813 -1.80516C168.569 -4.44432 168.391 -7.0826 168.337 -9.72873C168.285 -12.1825 168.331 -14.635 168.502 -17.0828C168.544 -17.6553 168.59 -18.2306 168.644 -18.8039C168.687 -19.2741 168.748 -21.1676 168.67 -19.3355C168.593 -17.5035 168.695 -19.3495 168.763 -19.8538C168.878 -20.5659 168.998 -21.2808 169.128 -22.0014C169.604 -24.4046 170.246 -26.7719 171.05 -29.0863C171.204 -29.531 171.72 -31.3532 171.199 -29.6057C170.679 -27.8582 171.199 -29.6057 171.423 -30.0647C171.955 -31.2255 172.543 -32.3674 173.181 -33.4799C173.818 -34.5924 174.557 -35.6413 175.249 -36.7273C176.183 -38.1734 173.672 -34.8432 174.806 -36.1345C175.199 -36.5691 175.533 -37.0151 175.915 -37.4242C176.661 -38.2877 177.446 -39.1079 178.273 -39.8849C178.688 -40.2727 179.112 -40.6543 179.543 -41.0298C179.863 -41.3124 180.183 -41.5826 180.514 -41.8459C179.024 -40.7088 178.684 -40.4316 179.494 -41.0142C180.442 -41.6039 181.353 -42.2562 182.326 -42.8025C182.809 -43.0828 183.308 -43.3343 183.81 -43.5809L184.184 -43.7594C185.206 -44.2205 185.197 -44.2149 184.155 -43.7426L183.346 -43.4017C183.739 -43.5465 184.138 -43.6816 184.538 -43.8043C185.175 -44.0069 185.819 -44.1875 186.474 -44.3487C186.957 -44.4617 187.449 -44.5477 187.937 -44.651C190.123 -45.1088 185.673 -44.5158 187.216 -44.5605C188.199 -44.59 189.158 -44.6705 190.143 -44.6426C190.573 -44.6347 194.079 -44.4208 191.791 -44.5815C189.504 -44.7423 193.112 -44.2524 193.745 -44.0848C194.818 -43.805 195.841 -43.4321 196.905 -43.0893C198.432 -42.5832 194.478 -44.201 195.928 -43.4826C196.367 -43.2603 196.814 -43.0685 197.262 -42.8519C198.26 -42.3565 199.234 -41.8172 200.184 -41.2339C201.024 -40.7219 201.811 -40.0442 202.668 -39.5808C202.463 -39.6879 200.217 -41.5759 201.809 -40.204C202.279 -39.7938 202.764 -39.4044 203.23 -38.9914C204.797 -37.5792 206.267 -36.0626 207.63 -34.4522C209.103 -32.7279 205.792 -36.9583 207.686 -34.3557C208.258 -33.5595 208.819 -32.75 209.368 -31.9397C211.494 -28.7793 213.44 -25.5013 215.197 -22.1216C216.004 -20.5777 216.771 -19.0147 217.497 -17.4324C217.854 -16.6401 218.202 -15.8422 218.557 -15.0422C218.913 -14.2423 219.345 -12.7773 218.002 -16.397C218.231 -15.7815 218.491 -15.1781 218.727 -14.573C220.068 -11.1007 221.235 -7.55994 222.223 -3.9729C223.211 -0.385836 224.038 3.30136 224.688 6.99472C224.998 8.74984 225.216 10.5008 225.486 12.2534C224.858 8.18628 225.354 11.2719 225.452 12.2731C225.569 13.3839 225.668 14.4957 225.752 15.6086C226.326 23.254 226.226 30.9352 225.453 38.5633C225.34 39.4802 225.256 40.3679 225.156 41.2716C224.94 43.2873 225.305 40.1849 225.325 40.0636C225.248 40.5084 225.204 40.9661 225.135 41.4129C224.842 43.441 224.509 45.4583 224.135 47.4648C223.402 51.2887 222.508 55.0752 221.452 58.8245C220.406 62.5748 219.163 66.31 217.794 69.9831C217.471 70.8484 217.086 71.685 216.792 72.5659C218.127 68.7249 216.948 72.1462 216.55 73.061C215.765 74.8636 214.944 76.6509 214.085 78.423C210.54 85.6382 206.363 92.5261 201.605 99.0063C200.665 100.308 203.317 96.7788 202.334 98.0405C202.048 98.4135 201.766 98.7837 201.472 99.1547C200.893 99.8911 200.306 100.624 199.71 101.353C198.367 102.994 196.98 104.598 195.551 106.164C192.834 109.15 189.972 111.998 186.966 114.709C185.556 115.985 184.104 117.235 182.61 118.461C181.787 119.133 178.698 121.244 182.183 118.838C181.29 119.454 180.444 120.152 179.564 120.792C176.194 123.236 172.701 125.504 169.097 127.586C165.407 129.715 161.608 131.652 157.717 133.388C156.691 133.842 153.185 134.848 157.009 133.722C156.034 134.011 155.084 134.486 154.132 134.846C151.945 135.687 149.727 136.454 147.479 137.145C143.127 138.512 138.708 139.654 134.238 140.565C132.063 141.009 129.888 141.396 127.697 141.734L126.032 141.979C123.838 142.313 126.493 141.918 126.797 141.896C125.374 142.001 123.965 142.252 122.546 142.354C118.31 142.739 114.047 142.744 109.81 142.37C108.579 142.26 106.02 141.399 109.338 142.367C108.366 142.158 107.384 141.999 106.395 141.89C104.19 141.486 102.006 140.988 99.8418 140.396C97.9106 139.872 96.005 139.276 94.1249 138.61C93.2251 138.294 92.2341 137.722 91.3064 137.558C93.7058 137.989 93.2422 138.368 92.235 137.934C91.5436 137.633 90.8501 137.339 90.1656 137.027C86.2426 135.248 82.4463 133.201 78.8036 130.902C77.0856 129.819 75.4002 128.685 73.7475 127.499C73.3535 127.175 72.9414 126.874 72.5133 126.597C75.0485 127.995 74.0763 127.798 73.3287 127.201C72.3341 126.411 71.3299 125.627 70.351 124.809C67.031 122.032 63.8805 119.059 60.9167 115.905C59.5365 114.43 58.1837 112.913 56.8888 111.363C56.5698 110.98 54.1293 107.87 55.5638 109.772C56.8348 111.459 55.7838 110.05 55.4769 109.622C55.1019 109.117 54.7301 108.611 54.3614 108.103C51.4727 104.095 48.8546 99.8982 46.5245 95.5416C45.2619 93.1916 44.0865 90.7995 42.9985 88.3652C42.7424 87.7915 42.5008 87.2093 42.2351 86.6412C41.4652 84.9725 43.1277 88.9095 42.4551 87.1972C41.9396 85.8775 41.4201 84.5729 40.9336 83.2364C39.0436 78.0515 37.5161 72.7416 36.3621 67.345C35.8315 64.8706 35.3809 62.3819 35.0102 59.8791C34.9454 59.4458 34.662 57.404 34.8957 59.1714C35.1674 61.2264 34.787 58.1185 34.7595 57.9602C34.6084 56.59 34.4966 55.2098 34.4049 53.8308C34.1186 48.9538 34.1736 44.0626 34.5694 39.1931C34.6939 37.4756 34.1804 41.5547 34.4711 39.8567C34.568 39.2907 34.642 38.7186 34.7659 38.1434C34.9904 36.8645 35.2566 35.5979 35.5644 34.3437C35.8441 33.2263 36.1584 32.1167 36.5075 31.0148C36.6806 30.469 36.8815 29.9265 37.0755 29.3943C37.8136 27.1782 36.3031 30.9852 36.9587 29.6041C37.9583 27.4002 39.1107 25.2687 40.4074 23.2253C40.7739 22.7853 41.0998 22.313 41.3811 21.8141C41.2637 22.134 39.4796 24.0937 40.9621 22.4255C41.8089 21.4622 42.6281 20.4957 43.5383 19.586C43.7974 19.3322 46.4091 17.1754 46.3756 17.04C46.4298 17.2666 43.6419 18.8871 45.6976 17.6277C46.1799 17.3473 46.6286 17.0091 47.1025 16.7143C48.0672 16.1535 49.0515 15.6265 50.0498 15.1237C51.8258 14.2268 49.4565 15.746 49.2011 15.4621C49.2656 15.5731 51.4483 14.7431 51.6038 14.7108C52.5527 14.456 53.6041 14.3997 54.5326 14.0987C54.2778 14.1822 51.4201 14.2949 53.4537 14.2742C53.9408 14.2685 54.4304 14.2226 54.9195 14.2093C55.8986 14.195 56.8795 14.2506 57.846 14.3147C58.8124 14.3787 59.4974 14.9354 56.7861 14.1566C57.4733 14.3507 58.2329 14.4253 58.9619 14.5693C59.9108 14.7919 60.8553 15.0623 61.7868 15.366C62.2377 15.5538 62.6986 15.7167 63.1674 15.8538C62.9318 15.8037 60.3457 14.552 62.1938 15.4778C64.1917 16.4643 66.1279 17.571 67.9918 18.7916C69.0516 19.5046 68.3637 19.7755 67.1532 18.1371C67.5104 18.4871 67.8993 18.8031 68.315 19.0811C69.0753 19.7231 69.8103 20.3991 70.5191 21.0968C71.228 21.7945 71.9086 22.5214 72.5632 23.27C72.8556 23.6714 73.1744 24.053 73.5174 24.4121C72.2668 22.7713 71.9462 22.3641 72.5501 23.1808C72.8073 23.5346 73.0597 23.8911 73.3053 24.258C74.7228 26.3341 75.9767 28.5173 77.0557 30.7878C77.3837 31.3253 77.648 31.8992 77.8431 32.4979C77.5916 30.3666 77.2141 30.8828 77.6159 31.9848C78.1568 33.4704 78.6977 34.9561 79.1385 36.4805C79.8746 38.9236 80.4684 41.4107 80.9587 43.9194C81.2096 45.18 81.4301 46.4475 81.6203 47.722C81.7028 48.3191 81.8559 49.0044 81.8978 49.6316C81.6678 46.3717 81.8641 49.6512 81.933 50.1918C82.8736 59.7162 82.9755 69.3049 82.2375 78.8475C82.0749 81.0323 81.8703 83.2115 81.6237 85.385L81.4314 87.0193C81.1057 89.7894 81.7607 84.8215 81.4799 86.6364C81.2887 87.8507 81.1205 89.0711 80.9197 90.291C80.1524 94.8919 79.1975 99.4513 78.055 103.969C76.9152 108.503 75.5381 112.961 73.9938 117.343C73.6291 118.381 73.2559 119.404 72.8655 120.431C72.6018 121.088 72.3635 121.71 72.1239 122.352C71.5258 123.932 73.087 120.057 72.4299 121.613C71.5205 123.768 70.595 125.906 69.6 128.013C67.5489 132.365 65.2777 136.609 62.7952 140.73C61.6629 142.601 60.4869 144.452 59.2635 146.267C58.7104 147.091 58.1421 147.912 57.5653 148.718C57.1596 149.205 56.7876 149.718 56.4521 150.256C56.9242 149.336 58.0622 148.152 56.8111 149.763C51.1526 157.051 44.6824 163.672 37.5257 169.496C34.9783 171.564 39.5781 167.987 36.9547 169.957C35.9596 170.709 34.9504 171.438 33.9329 172.152C32.0139 173.491 30.0506 174.761 28.0429 175.963C26.0601 177.147 24.0275 178.258 21.957 179.281C20.9944 179.756 20.0151 180.203 19.0385 180.655C18.062 181.106 17.2262 180.934 19.9901 180.282C19.3577 180.482 18.7391 180.723 18.138 181.004C16.0516 181.787 13.9264 182.462 11.7707 183.028C10.77 183.293 9.77327 183.543 8.74776 183.733C8.24202 183.84 7.73829 183.939 7.23378 184.026C6.1163 184.224 4.1934 183.858 7.47346 184.061C5.46583 183.937 3.28412 184.425 1.22331 184.41C0.157572 184.397 -0.906106 184.351 -1.96772 184.271C-2.48005 184.234 -3.0553 184.11 -3.55688 184.124C-0.463509 184.061 -2.40222 184.279 -3.4797 184.079C-5.56702 183.704 -7.62807 183.195 -9.6501 182.556C-10.3742 182.332 -11.9411 181.346 -12.6388 181.5C-11.6992 181.295 -10.3126 182.515 -11.8117 181.812C-12.2908 181.588 -12.7691 181.375 -13.2462 181.143C-15.1399 180.216 -16.9705 179.166 -18.7261 177.999C-19.0682 177.766 -20.8895 176.153 -19.3322 177.622C-17.9137 178.953 -19.1674 177.739 -19.5704 177.412C-20.4928 176.658 -21.3717 175.879 -22.2169 175.08C-27.0857 170.523 -35.5949 170.049 -40.2749 175.254C-44.8586 180.279 -45.3634 188.392 -40.1442 193.275C-23.0965 209.237 1.57024 213.86 23.4877 206.05C43.8891 198.817 61.801 184.592 75.0106 167.585C102.059 132.753 112.513 86.4819 106.54 43.0888C104.727 29.878 100.184 17.2342 91.818 6.74872C85.1829 -1.56887 75.195 -8.10534 64.7365 -10.2779C51.4275 -13.0581 38.9431 -9.52398 28.4351 -1.11285C18.9847 6.46425 12.8208 18.1634 10.387 29.9072C7.84578 42.2103 8.48174 54.5505 10.3493 66.878C12.2169 79.2055 16.2034 91.1595 21.4883 102.494C30.6529 122.135 45.1836 138.818 63.0397 151.02C79.4238 162.232 99.8337 169.169 119.826 168.071C141.045 166.85 161.716 160.861 180.303 150.55C213.21 132.204 236.844 99.8915 246.563 63.7126C255.732 29.5955 252.806 -8.71063 234.726 -39.4925C229.357 -48.6298 222.891 -56.7231 214.012 -62.6396C209.167 -65.8731 203.73 -68.1174 198.015 -69.2438C192.299 -70.3702 186.417 -70.3563 180.706 -69.2031C168.154 -66.5845 157.579 -57.2243 151.214 -46.4024C145.078 -35.9773 142.788 -23.4976 142.806 -11.5209C142.863 34.1948 169.15 80.1289 210.802 100.151C230.609 109.67 252.439 113.188 274.128 109.181C294.478 105.424 314.235 94.5395 328.178 79.228C335.752 70.9094 341.282 61.6498 345.482 51.2668C346.617 48.4582 345.63 44.0838 344.181 41.5906C342.605 38.8805 339.526 36.3476 336.414 35.6665C333.301 34.9854 329.589 35.1169 326.731 36.9718C323.692 38.9256 322.151 41.4149 320.81 44.7364L320.786 44.7504Z" fill="#282828"/>
</svg>
